<svg xmlns="http://www.w3.org/2000/svg" xmlns:xlink="http://www.w3.org/1999/xlink" version="1.1" x="0px" y="0px" viewBox="0 0 64 80" enable-background="new 0 0 64 64" xml:space="preserve"><g><path d="M60.836,8.559C59.49,7.532,57.813,6.921,56,6.921H8c-4.4,0-8,3.6-8,8v30.322c0,4.4,3.6,8,8,8h48c4.4,0,8-3.6,8-8V14.921   C64,12.334,62.756,10.023,60.836,8.559z M21.565,46.497c-9.066,0-16.415-7.35-16.415-16.415c0-9.066,7.349-16.415,16.415-16.415   c9.066,0,16.415,7.349,16.415,16.415C37.98,39.147,30.631,46.497,21.565,46.497z M58.396,44.739H43.912v-2h14.484V44.739z    M58.396,40.187H43.912v-2h14.484V40.187z M58.396,35.635H43.912v-2h14.484V35.635z M58.396,31.082H43.912v-2h14.484V31.082z    M58.396,26.53H43.912v-2h14.484V26.53z M58.396,21.978H43.912v-2h14.484V21.978z M58.396,17.426H43.912v-2h14.484V17.426z"/><path d="M25.602,17.719c1.229,3.259-4.037,12.363-4.037,12.363c4.095,0.759,8.953,0.06,10.841-2.483   C36.609,21.935,25.602,17.719,25.602,17.719z"/><path d="M16.278,39.868c1.482,6.896,11.914,1.404,11.914,1.404c-3.26-1.225-6.626-11.19-6.626-11.19   C18.293,32.66,15.613,36.771,16.278,39.868z"/><path d="M15.839,20.548c-6.688-2.239-7.28,9.534-7.28,9.534c2.717-2.181,13.006,0,13.006,0   C21.015,25.953,18.844,21.553,15.839,20.548z"/><rect x="6.929" y="55.079" width="6.125" height="2"/><rect x="50.945" y="55.079" width="6.125" height="2"/></g></svg>