<svg xmlns="http://www.w3.org/2000/svg" xmlns:xlink="http://www.w3.org/1999/xlink" xml:space="preserve" version="1.1" style="shape-rendering:geometricPrecision;text-rendering:geometricPrecision;image-rendering:optimizeQuality;" viewBox="0 0 312 305" x="0px" y="0px" fill-rule="evenodd" clip-rule="evenodd"><defs><style type="text/css">
   
    .fil0 {fill:black}
   
  </style></defs><g><path class="fil0" d="M283 97l-233 0c0,-94 -6,-97 26,-65 -7,10 -6,9 1,37 1,7 5,7 11,2 55,-52 50,-45 8,-52 -6,-1 -7,-1 -11,4 -8,-7 -12,-12 -20,-19 -15,-11 -31,3 -30,18 0,26 0,49 1,75 -17,0 -32,4 -36,23l312 0c-3,-13 -15,-23 -29,-23zm-270 31l0 18c0,39 32,71 71,71l144 0c39,0 71,-32 71,-71l0 -18 -286 0zm25 82c-23,0 -23,34 0,34 22,0 22,-34 0,-34zm236 0c-22,0 -22,34 0,34 23,0 23,-34 0,-34zm-146 -165c-9,-9 8,-2 5,2 -1,0 -3,0 -5,-2zm9 9c-9,-9 9,-3 5,1 -1,1 -3,0 -5,-1zm10 8c-10,-9 8,-2 4,2 0,1 -2,0 -4,-2zm9 9c-9,-9 8,-3 5,2 -1,0 -3,0 -5,-2zm-6 6c-9,-9 9,-2 5,2 -1,0 -3,0 -5,-2zm-9 -9c-9,-8 8,-2 5,2 -1,1 -3,0 -5,-2zm-9 -8c-10,-9 8,-3 4,1 0,1 -2,0 -4,-1zm-10 -9c-9,-9 9,-2 5,2 -1,1 -3,0 -5,-2zm23 32c-10,-9 8,-2 4,2 -1,1 -3,0 -4,-2zm-10 -8c-9,-9 9,-3 5,1 -1,1 -3,0 -5,-1zm-9 -9c-10,-9 8,-2 5,2 -1,0 -3,0 -5,-2zm-9 -9c-10,-8 8,-2 4,2 0,1 -3,0 -4,-2zm-7 7c-9,-9 9,-3 5,1 -1,1 -3,0 -5,-1zm10 8c-10,-9 8,-2 4,2 -1,1 -3,0 -4,-2zm9 9c-10,-9 8,-3 4,1 0,1 -2,1 -4,-1zm9 8c-9,-8 8,-2 5,2 -1,1 -3,0 -5,-2zm-15 -2c-9,-9 8,-2 5,2 -1,0 -3,0 -5,-2zm-9 -9c-10,-8 8,-2 4,2 0,1 -2,0 -4,-2zm-9 -8c-10,-9 8,-3 4,1 -1,1 -3,0 -4,-1zm3 15c-9,-9 8,-3 5,1 -1,1 -3,0 -5,-1zm-9 -9c-10,-9 8,-2 4,2 0,0 -2,0 -4,-2z"/></g></svg>