<svg xmlns="http://www.w3.org/2000/svg" xmlns:xlink="http://www.w3.org/1999/xlink" version="1.1" x="0px" y="0px" viewBox="0 0 33 41.25" enable-background="new 0 0 33 33" xml:space="preserve"><g><path d="M24.6315,30.13l-1.07-5.69c-0.18-0.94-1.01-1.62-1.97-1.62h-5.17c-0.27,0-0.5-0.22-0.5-0.5c0-0.28,0.23-0.5,0.5-0.5h5.04   c-0.36-0.71-1.1-1.2-1.96-1.2h-7.5c-0.61,0-1.16,0.24-1.56,0.64s-0.64,0.95-0.64,1.56h0.11c-0.96,0-1.79,0.68-1.97,1.62l-1.07,5.69   c-0.24,1.23,0.71,2.37,1.96,2.37h13.84C23.9215,32.5,24.8715,31.36,24.6315,30.13z M12.7515,30.31c-0.28,0-0.5-0.23-0.5-0.5   c0-0.28,0.22-0.5,0.5-0.5s0.5,0.22,0.5,0.5C13.2515,30.08,13.0315,30.31,12.7515,30.31z M14.7515,30.31c-0.28,0-0.5-0.23-0.5-0.5   c0-0.28,0.22-0.5,0.5-0.5s0.5,0.22,0.5,0.5C15.2515,30.08,15.0315,30.31,14.7515,30.31z M16.7515,30.31c-0.28,0-0.5-0.23-0.5-0.5   c0-0.28,0.22-0.5,0.5-0.5s0.5,0.22,0.5,0.5C17.2515,30.08,17.0315,30.31,16.7515,30.31z M15.7515,27.9c-0.83,0-1.5-0.67-1.5-1.5   c0-0.83,0.67-1.5,1.5-1.5s1.5,0.67,1.5,1.5C17.2515,27.23,16.5815,27.9,15.7515,27.9z M18.7515,30.31c-0.28,0-0.5-0.23-0.5-0.5   c0-0.28,0.22-0.5,0.5-0.5s0.5,0.22,0.5,0.5C19.2515,30.08,19.0315,30.31,18.7515,30.31z"/><g><path d="M23.2815,2.15c0,0.28-0.22,0.5-0.5,0.5H8.7215c-0.28,0-0.5-0.22-0.5-0.5c0-0.28,0.22-0.5,0.5-0.5h4.16V1    c0-0.27,0.22-0.5,0.5-0.5h4.74c0.28,0,0.5,0.23,0.5,0.5v0.65h4.16C23.0615,1.65,23.2815,1.87,23.2815,2.15z"/></g><g><path d="M23.6615,6.36h-1.11l0.32-1.5099c0.13-0.6201-0.34-1.2-0.98-1.2h-12.28c-0.64,0-1.11,0.58-0.98,1.2l2.92,13.97    c0.1,0.47,0.51,0.8,0.98,0.8h6.4399c0.47,0,0.88-0.33,0.98-0.8l0.81-3.89h1.82c1.1,0,2.07-0.72,2.39-1.78l1.08-3.56    C26.5534,8.0007,25.3381,6.36,23.6615,6.36z M24.1415,9.01l-1.08,3.56c-0.07,0.21-0.27,0.36-0.48,0.36h-1.4l0.96-4.57h1.52    C23.9999,8.36,24.2444,8.7014,24.1415,9.01z"/></g></g><text x="0" y="48" fill="#000000" font-size="5px" font-weight="bold" font-family="'Helvetica Neue', Helvetica, Arial-Unicode, Arial, Sans-serif">Created by Vectors Point</text><text x="0" y="53" fill="#000000" font-size="5px" font-weight="bold" font-family="'Helvetica Neue', Helvetica, Arial-Unicode, Arial, Sans-serif">from the Noun Project</text></svg>