<svg xmlns="http://www.w3.org/2000/svg" data-name="Kitchen Objects" viewBox="0 0 60 75" x="0px" y="0px"><title>Kitchen Objects - 004 - Kettle</title><path d="M51,30.71V9a9.01353,9.01353,0,0,0-9-9H21a9.01353,9.01353,0,0,0-9,9v3a3.00883,3.00883,0,0,0,3,3h2a3.00883,3.00883,0,0,0,3-3V9a1.003,1.003,0,0,1,1-1H42a1.003,1.003,0,0,1,1,1V26.17A13.27451,13.27451,0,0,0,41,26h-.18A3.01032,3.01032,0,0,0,38,24V23a3.00879,3.00879,0,0,0-3-3H34V18.5a3.5,3.5,0,0,0-7,0V20H26a3.00879,3.00879,0,0,0-3,3v1a2.98042,2.98042,0,0,0-2.82,2H20c-.37,0-.73.01-1.08.04a14.02357,14.02357,0,0,0-2.31.43l-4.88-5.51a3.03007,3.03007,0,0,0-4.23-.25L3,24.69a3.03467,3.03467,0,0,0-.25,4.25L7.78,34.6A12.90691,12.90691,0,0,0,7,39V58a2.00591,2.00591,0,0,0,2,2H52a2.00591,2.00591,0,0,0,2-2V39A12.98425,12.98425,0,0,0,51,30.71ZM29,18.5a1.5,1.5,0,0,1,3,0V20H29ZM25,23a1.003,1.003,0,0,1,1-1h9a1.003,1.003,0,0,1,1,1v1H25Zm-2.69,3.29A.92832.92832,0,0,1,23,26H38a1.003,1.003,0,0,1,1,1,.94833.94833,0,0,1-.31.71A.92838.92838,0,0,1,38,28H23a1.003,1.003,0,0,1-1-1A.94846.94846,0,0,1,22.31,26.29ZM11.69,35.53a8.92355,8.92355,0,0,1,3.06-3.84,8.72208,8.72208,0,0,1,2.45-1.25,1.00085,1.00085,0,1,1,.63,1.9,6.74492,6.74492,0,0,0-1.91.97A6.99338,6.99338,0,0,0,13,39a1,1,0,0,1-2,0A8.95274,8.95274,0,0,1,11.69,35.53ZM4.91,28.35l-.66-.74a1.00864,1.00864,0,0,1,.08-1.42l4.49-3.98a1.01977,1.01977,0,0,1,1.42.08l.66.75ZM42,56H12a1,1,0,0,1,0-2H42a1,1,0,0,1,0,2Zm7,0H46a1,1,0,0,1,0-2h3a1,1,0,0,1,0,2Z"/></svg>