<svg xmlns="http://www.w3.org/2000/svg" xmlns:xlink="http://www.w3.org/1999/xlink" version="1.1" x="0px" y="0px" viewBox="0 0 64 80" enable-background="new 0 0 64 64" xml:space="preserve"><g><path d="M58.467,14.615h-2.672V8.047H8.207v6.568H5.533C2.49,14.615,0,17.105,0,20.148V50.42c0,3.043,2.49,5.533,5.533,5.533   h52.934c3.043,0,5.533-2.49,5.533-5.533V20.148C64,17.105,61.51,14.615,58.467,14.615z M10.052,9.891h43.899v4.725H10.052V9.891z    M5.508,24.998v-6.08h52.984v6.08H5.508z M8.053,48.83H6.479v-2.4h1.574V48.83z M11.238,48.83H9.665v-2.4h1.573V48.83z    M14.424,48.83h-1.572v-2.4h1.572V48.83z M17.61,48.83h-1.572v-2.4h1.572V48.83z M20.797,48.83h-1.574v-2.4h1.574V48.83z    M23.983,48.83h-1.574v-2.4h1.574V48.83z M27.168,48.83h-1.572v-2.4h1.572V48.83z M27.698,44.125H5.876V30.639h21.822V44.125z    M45.432,53.107C38.014,53.107,32,47.096,32,39.68c0-7.418,6.013-13.432,13.431-13.432c7.416,0,13.428,6.014,13.428,13.432   C58.859,47.096,52.848,53.107,45.432,53.107z"/></g></svg>