<svg xmlns="http://www.w3.org/2000/svg" xmlns:xlink="http://www.w3.org/1999/xlink" version="1.1" x="0px" y="0px" viewBox="0 0 283.5 354.375" style="enable-background:new 0 0 283.5 283.5;" xml:space="preserve"><path d="M271.7,127.3c0,0-11.9-9.3-15.9-11.7s-7.7-5.6-10.1-8.5c4.2-1.6,13.3-0.5,21.5-1.3s6.1-5.3,5.8-7.7c-0.3-2.4-2.4-5-3.7-5.3  s-10.1-2.7-13.3-2.9c-3.2-0.3-4.2,0.5-5,3.2c-0.8,2.7-2.4,7.8-2.4,7.8s-2.4-0.3-4.8,0c-4.8-17-18.6-37.8-28.1-45  c-11.7-3.2-74-6.1-74-6.1s-62.4,2.9-74,6.1c-9.6,7.2-23.4,28-28.1,45c-2.4-0.3-4.8,0-4.8,0s-1.6-5.2-2.4-7.8c-0.8-2.7-1.9-3.4-5-3.2  c-3.2,0.3-11.9,2.7-13.3,2.9s-3.4,2.9-3.7,5.3s-2.4,6.9,5.8,7.7c8.2,0.8,17.2-0.3,21.5,1.3c-2.4,2.9-6.1,6.1-10.1,8.5  c-4,2.4-15.9,11.7-15.9,11.7s-5.3,15.4-5.3,41.9S8.7,213,8.7,213s1.9,13.5,2.1,15.4c0.3,1.9,2.1,8.2,8.5,8.5c6.4,0.3,15.1,0,18.6,0  c3.4,0,9.8-3.2,9.8-6.1s0-9.3,0-9.3s75.2,1.3,93.9,1.3c18.8,0,93.9-1.3,93.9-1.3s0,6.4,0,9.3s6.4,6.1,9.8,6.1c3.4,0,12.2,0.3,18.6,0  c6.4-0.3,8.2-6.6,8.5-8.5s2.1-15.4,2.1-15.4s2.4-17.2,2.4-43.8S271.7,127.3,271.7,127.3z M266.4,130.2c2.1,7.2,0,18.8-2.1,19.9  c-2.1,1.1-11.4,5-11.4,5l-7.2-3.5c0,0-10.6,1.9-16.7,3.5s-13-1.1-21-3.5C233.7,132,266.4,130.2,266.4,130.2z M53.3,89.3  c0.5-1.9,10.6-21.8,11.4-22.8c0.8-1.1,1.3-2.4,4-3.2c2.7-0.8,65.8-5.8,73-5.8c7.2,0,70.3,5,73,5.8c2.7,0.8,3.2,2.1,4,3.2  c0.8,1.1,10.9,21,11.4,22.8c0.5,1.9,2.9,10.1-4.8,10.1s-159.5,0-167.2,0S52.8,91.2,53.3,89.3z M16.9,130.2c0,0,32.6,1.8,58.4,21.5  c-8,2.4-14.9,5.1-21,3.5s-16.7-3.5-16.7-3.5l-7.2,3.5c0,0-9.3-4-11.4-5C16.9,149,14.8,137.4,16.9,130.2z M60.7,209.8  c-2.7-0.3-26.3-3.7-26.3-3.7s-2.4,0.5-8,0c-5.6-0.5-10.4-6-11.7-10.9c-1.2-4.8-2.1-14.1-2.1-14.1s31.8,8.5,37.9,9.6  c6.1,1.1,7.4,4,8.2,4.9s4.8,8.9,5.8,11.9C65.7,210.3,63.4,210.1,60.7,209.8z M186.2,195.7c-15.6,0-73.5,0-89.1,0  c-15.6,0-43-5.8-28.1-25.5c14.9-19.6,65.5-18.6,72.7-18.6c7.2,0,57.8-1.1,72.7,18.6C229.2,189.9,201.9,195.7,186.2,195.7z   M269,195.2c-1.2,4.8-6.1,10.3-11.7,10.9c-5.6,0.5-8,0-8,0s-23.6,3.4-26.3,3.7c-2.7,0.3-5,0.5-3.9-2.4c1-2.9,5-11,5.8-11.9  s2.1-3.8,8.2-4.9c6.1-1.1,37.9-9.6,37.9-9.6S270.3,190.4,269,195.2z"/></svg>