<svg xmlns="http://www.w3.org/2000/svg" xmlns:xlink="http://www.w3.org/1999/xlink" version="1.1" x="0px" y="0px" viewBox="0 0 23 37.34625" style="enable-background:new 0 0 23 29.877;" xml:space="preserve"><g><path d="M0,28.386c0,0.831,0.711,1.491,1.541,1.491l19.899-0.004c0.832,0,1.56-0.66,1.56-1.491V6.864L0,6.868V28.386z M20,19.238   c0,0.353-0.286,0.639-0.64,0.639H15.64c-0.354,0-0.64-0.286-0.64-0.639v-1.723c0-0.353,0.286-0.639,0.64-0.639h3.721   c0.354,0,0.64,0.286,0.64,0.639V19.238z M11.648,10.918c2.868,0,5.349,1.958,6.611,3.958h-3.875c-0.756,0-1.705-0.916-2.74-0.916   c-2.463,0-4.466,2.02-4.466,4.481c0,2.465,2.006,4.447,4.468,4.447c1.058,0,2.023-0.013,2.788-1.013h3.849   c-1.258,3-3.752,4.057-6.635,4.057c-4.136,0-7.502-3.371-7.502-7.51C4.146,14.289,7.513,10.918,11.648,10.918z"/><path d="M20.046,0L2.975,0.004C1.361,0.004,0,1.309,0,2.922v3.065l23-0.004V2.918C23,1.305,21.658,0,20.046,0z M3.71,4.357   c-0.771,0-1.395-0.625-1.395-1.395c0-0.771,0.624-1.395,1.395-1.395c0.77,0,1.395,0.624,1.395,1.395   C5.104,3.732,4.479,4.357,3.71,4.357z M7.896,3.834c-0.482,0-0.872-0.391-0.872-0.871c0-0.481,0.39-0.872,0.872-0.872   c0.479,0,0.87,0.391,0.87,0.872C8.767,3.443,8.376,3.834,7.896,3.834z M11.035,3.834c-0.48,0-0.871-0.391-0.871-0.871   c0-0.481,0.391-0.872,0.871-0.872c0.481,0,0.871,0.391,0.871,0.872C11.906,3.443,11.517,3.834,11.035,3.834z M14.176,3.834   c-0.481,0-0.872-0.391-0.872-0.871c0-0.481,0.391-0.872,0.872-0.872c0.479,0,0.871,0.391,0.871,0.872   C15.047,3.443,14.655,3.834,14.176,3.834z M17.314,3.834c-0.48,0-0.871-0.391-0.871-0.871c0-0.481,0.391-0.872,0.871-0.872   c0.481,0,0.871,0.391,0.871,0.872C18.186,3.443,17.796,3.834,17.314,3.834z"/></g></svg>