<svg xmlns="http://www.w3.org/2000/svg" xmlns:xlink="http://www.w3.org/1999/xlink" version="1.1" x="0px" y="0px" viewBox="0 0 100 125" enable-background="new 0 0 100 100" xml:space="preserve"><path d="M62.086,41.973"/><path d="M68.25,30.29H55.997H32.111c0,0-2.167-0.089-10.943-0.089c-8.768,0-8.329,7.986-8.329,12.155s1.512,14.636-1.308,17.459  v3.559h1.826c0,0,4.599-5.821,4.599-11.464c0-5.647,0-9.816,0-11.816c0-1.986,3.739-4.249,5.995-1.986  c1.474,1.47,2.913,3.51,4.797,4.729l-0.014,0.285c-4.574,5.67-7.324,12.895-7.324,20.756c0,5.509,1.352,7.032,3.728,11.598h38.199  c2.373-4.565,3.728-6.089,3.728-11.598c0-7.861-2.743-15.086-7.322-20.756L68.25,30.29z M64.05,60.358  c0,6.235-0.561,8.462-3.131,12.297H27.757c-2.692-3.835-3.126-6.284-3.126-12.297H64.05z"/><path d="M9.372,5l6.799,6.507h3.483l3.118,6.992h9.124l3.3,6.797h10.291h8.068h0.663L57.53,18.5H73.64l4.663-6.992v70.291H14.358  h-0.401c-3.646,0-6.603,2.953-6.603,6.601c0,3.644,2.958,6.601,6.603,6.601h0.401h79.075V5H9.372z M50.454,21.952h-0.301h-3.658  h-7.142L37.85,18.87h14.098L50.454,21.952z"/></svg>