<svg xmlns="http://www.w3.org/2000/svg" xmlns:xlink="http://www.w3.org/1999/xlink" xml:space="preserve" version="1.1" style="shape-rendering:geometricPrecision;text-rendering:geometricPrecision;image-rendering:optimizeQuality;" viewBox="0 0 672 495" x="0px" y="0px" fill-rule="evenodd" clip-rule="evenodd"><defs><style type="text/css">
   
    .fil0 {fill:black}
   
  </style></defs><g><path class="fil0" d="M263 3l376 0c18,0 33,15 33,33l0 272c0,19 -15,34 -33,34l-376 0c-18,0 -33,-15 -33,-34l0 -272c0,-18 15,-33 33,-33zm1 18l374 0c9,0 16,7 16,16l0 271c0,8 -7,15 -16,15l-374 0c-9,0 -15,-7 -15,-15l0 -271c0,-9 6,-16 15,-16z"/><path class="fil0" d="M342 359l218 0c10,0 19,8 19,18 0,10 -9,19 -19,19l-218 0c-10,0 -19,-9 -19,-19 0,-10 9,-18 19,-18z"/><path class="fil0" d="M194 318l0 46c0,15 -13,28 -28,28l-138 0c-15,0 -28,-13 -28,-28l0 -46 194 0zm-95 16c9,0 17,8 17,17 0,10 -8,17 -17,17 -10,0 -18,-7 -18,-17 0,-9 8,-17 18,-17z"/><path class="fil0" d="M28 0l138 0c15,0 28,13 28,28l0 273 -194 0 0 -273c0,-15 13,-28 28,-28zm69 159c5,0 10,4 10,10 0,5 -5,10 -10,10 -5,0 -10,-5 -10,-10 0,-6 5,-10 10,-10zm-56 -68l112 0 0 30 -112 0 0 -30zm0 -51l112 0 0 30 -112 0 0 -30z"/></g></svg>