<svg xmlns="http://www.w3.org/2000/svg" xmlns:xlink="http://www.w3.org/1999/xlink" version="1.1" x="0px" y="0px" viewBox="0 0 105 131.25" style="enable-background:new 0 0 105 105;" xml:space="preserve"><path d="M30,59c-6.7,0-12.1,5.4-12.1,12.1c0,6.7,5.4,12.1,12.1,12.1c6.7,0,12.1-5.4,12.1-12.1C42.1,64.4,36.7,59,30,59z M30,36.6  c4.8,0,8.8-3.9,8.8-8.8s-3.9-8.8-8.8-8.8c-4.8,0-8.8,3.9-8.8,8.8S25.1,36.6,30,36.6z M76.4,15.7c-6.7,0-12.1,5.4-12.1,12.1  c0,6.7,5.4,12.1,12.1,12.1s12.1-5.4,12.1-12.1C88.6,21.1,83.1,15.7,76.4,15.7z M102.5,8.7c0-3.4-2.8-6.2-6.2-6.2H8.7  c-3.4,0-6.2,2.8-6.2,6.2v87.7c0,3.4,2.8,6.2,6.2,6.2h87.7c3.4,0,6.2-2.8,6.2-6.2V8.7z M30,16.8c6.1,0,11,4.9,11,11  c0,6.1-4.9,11-11,11c-6.1,0-11-4.9-11-11C19,21.8,23.9,16.8,30,16.8z M30,85.5c-7.9,0-14.4-6.4-14.4-14.4S22.1,56.7,30,56.7  s14.4,6.4,14.4,14.4S37.9,85.5,30,85.5z M48.5,96.3c0,0.6-0.5,1.2-1.2,1.2h-0.7c-0.6,0-1.2-0.5-1.2-1.2v-1.7c0-0.6,0.5-1.2,1.2-1.2  h0.7c0.6,0,1.2,0.5,1.2,1.2V96.3z M53.5,96.3c0,0.6-0.5,1.2-1.2,1.2h-0.7c-0.6,0-1.2-0.5-1.2-1.2v-1.7c0-0.6,0.5-1.2,1.2-1.2h0.7  c0.6,0,1.2,0.5,1.2,1.2V96.3z M57.5,96.3c0,0.6-0.5,1.2-1.2,1.2h-0.7c-0.6,0-1.2-0.5-1.2-1.2v-1.7c0-0.6,0.5-1.2,1.2-1.2h0.7  c0.6,0,1.2,0.5,1.2,1.2V96.3z M61.5,96.3c0,0.6-0.5,1.2-1.2,1.2h-0.7c-0.6,0-1.2-0.5-1.2-1.2v-1.7c0-0.6,0.5-1.2,1.2-1.2h0.7  c0.6,0,1.2,0.5,1.2,1.2V96.3z M76.4,82.1c-6.1,0-11-4.9-11-11c0-6.1,4.9-11,11-11c6.1,0,11,4.9,11,11C87.4,77.2,82.5,82.1,76.4,82.1  z M76.4,42.2c-7.9,0-14.4-6.4-14.4-14.4s6.4-14.4,14.4-14.4s14.4,6.4,14.4,14.4S84.4,42.2,76.4,42.2z M76.4,62.3  c-4.8,0-8.8,3.9-8.8,8.8c0,4.8,3.9,8.8,8.8,8.8s8.8-3.9,8.8-8.8C85.2,66.3,81.3,62.3,76.4,62.3z"/></svg>