<svg xmlns="http://www.w3.org/2000/svg" data-name="Kitchen Objects" viewBox="0 0 60 75" x="0px" y="0px"><title>Kitchen Objects - 011 - Dish Washer</title><path d="M22.27423,39.24982c-.07379-.17346-.14026-.34943-.20776-.52539-.10626-.27692-.20593-.55585-.29651-.83862-.05841-.18243-.11389-.36536-.16571-.55-.08118-.28918-.15167-.58124-.21649-.87549-.03973-.1806-.08142-.36029-.11493-.54272-.05579-.30334-.097-.60986-.13531-.91754h-7.936a10.00643,10.00643,0,0,0,11.23206,7.89746q-.42407-.53513-.79773-1.101c-.04687-.0708-.08588-.14587-.13159-.21735-.21454-.33539-.41931-.676-.6073-1.02521-.08075-.15-.151-.30469-.22681-.45715C22.53131,39.81738,22.39618,39.53662,22.27423,39.24982Z"/><path d="M26.94006,45.42157c-.11688-.095-.23663-.18622-.35059-.28436-.19666-.16943-.38391-.34833-.57172-.527A12.17671,12.17671,0,0,1,23,45,12.00966,12.00966,0,0,1,11.18066,35H9.15973A13.99659,13.99659,0,0,0,27.86328,46.13281c-.06317-.04413-.12-.09558-.18243-.14056C27.42712,45.80963,27.18164,45.61792,26.94006,45.42157Z"/><path d="M23,21a12.17537,12.17537,0,0,1,3.01764.38983c.18793-.17889.37531-.358.57227-.52765.113-.09741.232-.18787.3479-.28217.2431-.19775.49011-.39056.74567-.57434.06158-.04431.11749-.095.17981-.13849A14.01067,14.01067,0,0,0,9,33h2A12.01375,12.01375,0,0,1,23,21Z"/><path d="M23.63342,24.20758q.37537-.56708.80017-1.105A10.00486,10.00486,0,0,0,13,33h8c0-.49445.02679-.98462.071-1.47125.01428-.15747.04-.31213.0589-.46863.03967-.32855.08368-.65576.14325-.97949.0332-.1806.07446-.35834.11383-.53723.06525-.29687.13654-.59143.21844-.88318.05115-.18195.10577-.36218.16327-.54193.09174-.28668.19281-.56952.30066-.85016.066-.172.131-.34393.20306-.51343.125-.29425.26337-.58221.40619-.86853.07239-.14508.13916-.29248.216-.43542.19891-.36987.41461-.73108.64325-1.08539C23.57129,24.3136,23.59937,24.259,23.63342,24.20758Z"/><circle cx="48.5" cy="7.5" r="1.5"/><path d="M37,45a12.22632,12.22632,0,0,1-3.59375-.54395A11.96039,11.96039,0,0,1,25.185,35H23.1579A13.96543,13.96543,0,0,0,37,47,14.00944,14.00944,0,0,0,50.84027,35H48.81934A12.00966,12.00966,0,0,1,37,45Z"/><path d="M37,23a10.21143,10.21143,0,0,0-3.00586.45605A10.00579,10.00579,0,0,0,27,33H47A10.01114,10.01114,0,0,0,37,23Z"/><path d="M54,0H6A3.00879,3.00879,0,0,0,3,3V53a3.00883,3.00883,0,0,0,3,3v2a2.00591,2.00591,0,0,0,2,2h6a2.00591,2.00591,0,0,0,2-2V56H44v2a2.00591,2.00591,0,0,0,2,2h6a2.00591,2.00591,0,0,0,2-2V56a3.00883,3.00883,0,0,0,3-3V3A3.00879,3.00879,0,0,0,54,0ZM48.5,4A3.5,3.5,0,1,1,45,7.5,3.50425,3.50425,0,0,1,48.5,4ZM19,5a1,1,0,0,1,2,0v5a1,1,0,0,1-2,0ZM15,5a1,1,0,0,1,2,0v5a1,1,0,0,1-2,0ZM11,5a1,1,0,0,1,2,0v5a1,1,0,0,1-2,0ZM7,5A1,1,0,0,1,9,5v5a1,1,0,0,1-2,0Zm7,53H8V56h6Zm38,0H46V56h6Zm3-23H52.86115A16.02231,16.02231,0,0,1,44.7287,47H55v2H5V47H15.2713A16.02231,16.02231,0,0,1,7.13885,35H5V33H7A15.99086,15.99086,0,0,1,30.00024,18.6181,15.99046,15.99046,0,0,1,53,33h2Zm0-20H5V13H55Z"/><path d="M37,19A14.01089,14.01089,0,0,0,23.09509,31.42993,14.16279,14.16279,0,0,0,23,33h2a12.00528,12.00528,0,0,1,8.40088-11.4541A12.22632,12.22632,0,0,1,37,21,12.01375,12.01375,0,0,1,49,33h2A14.01573,14.01573,0,0,0,37,19Z"/><path d="M30.6377,40.72021a9.97552,9.97552,0,0,0,3.36182,1.82568A10.21144,10.21144,0,0,0,37,43a10.01644,10.01644,0,0,0,9.79846-8H27.21A10.00007,10.00007,0,0,0,30.6377,40.72021Z"/></svg>