<svg xmlns="http://www.w3.org/2000/svg" xmlns:xlink="http://www.w3.org/1999/xlink" version="1.1" x="0px" y="0px" viewBox="0 0 33 41.25" enable-background="new 0 0 33 33" xml:space="preserve"><g><path d="M31.3966,27.38H1.6035C0.9966,27.38,0.5,27.8765,0.5,28.4834v2.9131C0.5,32.0034,0.9966,32.5,1.6035,32.5h29.7931   c0.6069,0,1.1034-0.4966,1.1034-1.1034v-2.9131C32.5,27.8765,32.0034,27.38,31.3966,27.38z M24.7648,31.0434   c-0.6179,0-1.1034-0.4966-1.1034-1.1034c0-0.6179,0.4855-1.1034,1.1034-1.1034c0.6069,0,1.1034,0.4855,1.1034,1.1034   C25.8683,30.5469,25.3717,31.0434,24.7648,31.0434z M29.1786,31.0434c-0.6179,0-1.1034-0.4966-1.1034-1.1034   c0-0.6179,0.4855-1.1034,1.1034-1.1034c0.6069,0,1.1034,0.4855,1.1034,1.1034C30.2821,30.5469,29.7855,31.0434,29.1786,31.0434z"/><path d="M31.3833,26.2765H1.6167c-0.8844,0-1.4108-0.9869-0.9181-1.7214L9.5373,11.38h0.0221V2.7069   c0-1.2138,0.9931-2.2069,2.2069-2.2069h9.4675c1.2138,0,2.2069,0.9931,2.2069,2.2069v6.4662c0,0.6094-0.494,1.1034-1.1034,1.1034   h-5.2855c-0.309,0-0.5517,0.2427-0.5517,0.5517c0,0.3089,0.2427,0.5517,0.5517,0.5517h5.8225c0.3678,0,0.7114,0.1833,0.9163,0.4887   l8.5108,12.6865C32.7941,25.2896,32.2677,26.2765,31.3833,26.2765z"/></g><text x="0" y="48" fill="#000000" font-size="5px" font-weight="bold" font-family="'Helvetica Neue', Helvetica, Arial-Unicode, Arial, Sans-serif">Created by Vectors Point</text><text x="0" y="53" fill="#000000" font-size="5px" font-weight="bold" font-family="'Helvetica Neue', Helvetica, Arial-Unicode, Arial, Sans-serif">from the Noun Project</text></svg>