<svg xmlns="http://www.w3.org/2000/svg" xmlns:xlink="http://www.w3.org/1999/xlink" xml:space="preserve" version="1.1" style="shape-rendering:geometricPrecision;text-rendering:geometricPrecision;image-rendering:optimizeQuality;" viewBox="0 0 846.66 1058.325" x="0px" y="0px" fill-rule="evenodd" clip-rule="evenodd"><defs><style type="text/css">
   
    .fil0 {fill:black}
   
  </style></defs><g><path class="fil0" d="M477.49 508.43l3.71 67.8 132.48 132.47c67.39,67.4 162.42,-27.63 95.03,-95.03l-132.48 -132.48 -67.79 -3.7 -12.33 -12.33c-7.36,12.81 -18.13,23.58 -30.95,30.94l12.33 12.33zm-105.77 -136.72c28.47,-28.48 74.75,-28.48 103.24,0 28.47,28.48 28.46,74.76 -0.01,103.23 -28.47,28.47 -74.76,28.47 -103.23,0 -28.47,-28.47 -28.48,-74.75 0,-103.23zm30.94 30.95c-11.45,11.45 -11.44,29.89 0.01,41.34 11.46,11.45 29.88,11.45 41.33,0 11.46,-11.46 11.46,-29.89 0.01,-41.34 -11.46,-11.46 -29.89,-11.46 -41.35,0zm-33.49 105.78l-3.7 67.79 -132.48 132.48c-67.4,67.39 -162.43,-27.64 -95.03,-95.03l132.47 -132.48 67.8 -3.71 12.33 -12.33c7.37,12.81 18.14,23.58 30.95,30.94l-12.34 12.34zm-30.94 -139.27l-67.8 -3.71 -132.47 -132.48c-67.4,-67.39 27.63,-162.42 95.03,-95.03l132.48 132.48 3.7 67.79 12.33 12.33c-12.79,7.35 -23.62,18.13 -30.94,30.95l-12.33 -12.33zm170.21 0l67.79 -3.7 132.48 -132.48c67.39,-67.4 -27.64,-162.43 -95.03,-95.03l-132.48 132.47 -3.71 67.8 -12.32 12.32c12.81,7.35 23.62,18.13 30.95,30.95l12.32 -12.33z"/></g></svg>