<svg xmlns="http://www.w3.org/2000/svg" xmlns:xlink="http://www.w3.org/1999/xlink" version="1.1" x="0px" y="0px" viewBox="0 0 90 112.5" enable-background="new 0 0 90 90" xml:space="preserve"><polygon fill="#000000" points="45.869,17.951 46.376,14.394 28.863,17.904 30.819,20.979 "/><polygon fill="#000000" points="52.528,9.742 37.298,7.836 35.574,11.049 53.298,13.252 "/><polygon fill="#000000" points="46.182,25.028 62.853,13.182 59.638,11.277 45.441,21.364 "/><path fill="#000000" d="M84.226,50.75h-7.807V47.1c1.375,0,2.49-1.115,2.49-2.49s-1.115-2.491-2.49-2.491h-9.837l4.161-14.513  c0.004-0.016-0.002-0.032,0.001-0.047c0.007-0.024,0.023-0.043,0.028-0.068l1.231-4.645h9.552c0.908,0,1.662-0.584,1.955-1.391  c0.109-0.215,0.188-0.449,0.188-0.708c0-0.258-0.078-0.492-0.188-0.707c-0.293-0.807-1.047-1.391-1.955-1.391H71.462  c-0.842,0-1.555,0.502-1.889,1.215c-0.115,0.169-0.209,0.354-0.252,0.564l-1.313,5.17H57.498l0.622-2.967l-3.079-1.853l-1.012,4.82  H41.503l-5.431-3.869l-3.217,1.9l2.764,1.969H21.243c-0.495,0-0.959,0.231-1.257,0.625c-0.297,0.396-0.392,0.906-0.255,1.381  l4.161,14.513H13.583c-1.375,0-2.491,1.116-2.491,2.491s1.115,2.49,2.491,2.49v3.65H5.773c-1.524,0-2.759,1.235-2.759,2.76  s1.235,2.76,2.759,2.76h7.809v18.665c0,2.175,1.765,3.94,3.941,3.94h1.374l1.164,3.289h7.003l1.162-3.289h33.547l1.163,3.289h7.004  l1.162-3.289h1.373c2.179,0,3.943-1.766,3.943-3.94V56.27h7.807c1.525,0,2.76-1.235,2.76-2.76S85.751,50.75,84.226,50.75z   M56.837,28.744h2.871l-0.861,3.987h-2.848L56.837,28.744z M37.82,38.107h-5.032l-0.647-2.999l5.467,1.042L37.82,38.107z   M36.808,28.744l0.424,3.933l-5.858-1.118l-0.609-2.815H36.808z M23.331,28.744h5.826l0.539,2.496l-0.841-0.16l0.349,1.652h-4.731  L23.331,28.744z M23.066,72.719c-1.484,0-2.688-1.205-2.688-2.688c0-1.484,1.204-2.687,2.688-2.687c1.485,0,2.688,1.202,2.688,2.687  C25.754,71.514,24.552,72.719,23.066,72.719z M24.925,34.306h4.61l0.066,0.318l0.861,0.164l0.717,3.319h-5.166L24.925,34.306z   M27.164,42.118l-0.699-2.438h5.055l0.527,2.438H27.164z M31.563,72.719c-1.484,0-2.688-1.205-2.688-2.688  c0-1.484,1.204-2.687,2.688-2.687s2.688,1.202,2.688,2.687C34.25,71.514,33.047,72.719,31.563,72.719z M33.654,42.118l-0.527-2.438  h4.861l0.263,2.438H33.654z M38.39,28.744h1.644l4.417,3.146v0.841h-5.63L38.39,28.744z M39.225,36.459l4.514,0.86l0.711-1.271  v2.059h-5.047L39.225,36.459z M39.835,42.118l-0.263-2.438h4.878l0.001,2.438H39.835z M50.639,42.118h-4.613l-0.001-2.438h4.879  L50.639,42.118z M51.072,38.107h-5.048v-3.801h1.816l1.67,1.19l0.242-1.19h1.73L51.072,38.107z M51.653,32.731h-1.58l0.183-0.899  l-4.231-3.015v-0.074h6.06L51.653,32.731z M56.821,42.118h-4.6l0.264-2.438h4.862L56.821,42.118z M52.655,38.107l0.107-0.988  l2.399-0.403l0.507-2.41h2.838l-0.82,3.801H52.655z M63.31,42.118h-4.881l0.527-2.438h5.053L63.31,42.118z M64.46,38.107h-5.165  l0.821-3.801h5.433L64.46,38.107z M60.455,32.731l0.861-3.987h5.826l-1.142,3.987H60.455z"/></svg>