<svg xmlnsDc="http://purl.org/dc/elements/1.1/" xmlnsCc="http://creativecommons.org/ns#" xmlnRdf="http://www.w3.org/1999/02/22-rdf-syntax-ns#" xmlnsSvg="http://www.w3.org/2000/svg" xmlns="http://www.w3.org/2000/svg" xmlnsSodipodi="http://sodipodi.sourceforge.net/DTD/sodipodi-0.dtd" xmlnsInkscape="http://www.inkscape.org/namespaces/inkscape" viewBox="0 0 12.7 15.875" version="1.1" x="0px" y="0px"><g transform="translate(0,-284.29998)"><path style="" d="m 7.827618,284.83225 a 0.88884642,0.88884642 0 0 0 -0.7338219,0.38189 l -5.6942036,8.18555 a 1.6267757,1.6267757 0 1 0 1.5533951,-0.68265 l 5.3758835,-7.72717 A 0.88884642,0.88884642 0 0 0 7.827618,284.83225 Z m -5.1138931,8.77104 a 0.72525,0.72525 0 0 1 0.7462044,0.72503 0.72528905,0.72528905 0 1 1 -1.4505781,0 0.72525,0.72525 0 0 1 0.7043737,-0.72503 z" fill="#000000" stroke="none"/><path style="" d="m 3.2443,294.32847 a 0.50965,0.50965 0 1 0 -1.0193,0 0.50965,0.50965 0 1 0 1.0193,0 z" fill="#000000" stroke="none"/><path style="" d="m 6.2664,291.99522 0.2275,0.32272 5.0697,-3.57932 -0.1463,-0.20651 a 0.31933805,0.31933805 0 0 0 -0.4445,-0.0763 l -4.6644,3.29301 a 0.17696095,0.17696095 0 0 0 -0.042,0.24641 z" fill="#000000" stroke="none"/><path style="" d="m 4.54,293.96165 a 1.8423623,1.8423623 0 0 1 -0.1603,1.19707 l 7.417,-5.23703 a 0.88884644,0.88884644 0 0 0 0.2156,-1.23557 z" fill="#000000" stroke="none"/><path style="" d="m 5.3059,290.71414 a 0.17696095,0.17696095 0 0 1 -0.2464,0.0448 l -0.3248,-0.22612 3.5443,-5.09422 0.2072,0.14491 a 0.31933805,0.31933805 0 0 1 0.08,0.44453 z" fill="#000000" stroke="none"/><path style="" d="m 1.7959,295.91407 a 1.8423623,1.8423623 0 0 1 -0.6952,-0.73505 l -0.4319,0.43193 a 0.50575554,0.50575554 0 0 0 0.7148,0.71544 z" fill="#000000" stroke="none"/></g></svg>