<svg xmlns="http://www.w3.org/2000/svg" xmlns:xlink="http://www.w3.org/1999/xlink" xml:space="preserve" version="1.1" style="shape-rendering:geometricPrecision;text-rendering:geometricPrecision;image-rendering:optimizeQuality;" viewBox="0 0 846.66 1058.325" x="0px" y="0px" fill-rule="evenodd" clip-rule="evenodd"><defs><style type="text/css">
   
    .fil0 {fill:black}
   
  </style></defs><g><path class="fil0" d="M401.88 394.18l-23.63 188.73c-3.14,25.11 -26.25,45.65 -51.35,45.65l-0.01 0c-29.54,0 -50.69,-24.18 -46.99,-53.74l24.55 -196c-114.87,-60.64 -91.59,-270.7 69.88,-270.7 135.21,0 316.62,65.43 456.34,76.65l0 131.43c-130.74,10.49 -296.89,70.12 -428.79,77.98zm-105.02 238.02c-6.95,35.65 -20.54,80.91 -65.68,66.44 -65.23,-20.89 -32.1,-136.7 -50.02,-194.43 -16.71,-53.88 -75.08,-74.04 -112.84,-30.94 -29.87,34.09 -41.06,107.52 -52.24,180.92 -2.07,26.56 33.71,27.58 36.36,4.87 10.35,-67.98 20.76,-135.86 43.4,-161.7 19.19,-21.88 42.52,-7.68 50.35,17.61 21.09,67.98 -24.2,187.08 73.82,218.5 71.82,23.02 100.33,-36.73 112.6,-93.73 -1.89,0.19 -3.79,0.28 -5.71,0.28l-0.01 0c-2.65,0 -5.3,-0.17 -7.89,-0.49 -8.09,-1.01 -15.55,-3.56 -22.14,-7.33zm54 -392.66c0,19.72 29.98,19.72 29.98,0 0,-5.68 3.89,-5.66 3.89,0 0,10.81 -6.79,23.74 -18.88,23.74 -12.1,0 -18.9,-12.92 -18.9,-23.74 0,-20.45 13.43,-43.09 35.83,-43.09 22.4,0 35.83,22.64 35.83,43.09 0,30.07 -20.09,62.46 -52.76,62.46 -32.69,0 -52.78,-32.39 -52.78,-62.46 0,-19.71 -29.98,-19.71 -29.98,0 0,46.7 33.37,92.44 82.76,92.44 49.37,0 82.74,-45.75 82.74,-92.44 0,-37.08 -26.7,-73.07 -65.81,-73.07 -39.11,0 -65.81,35.99 -65.81,73.07 0,27.48 20.04,53.72 48.88,53.72 28.83,0 48.86,-26.24 48.86,-53.72 0,-17.85 -13.38,-34.34 -31.93,-34.34 -18.55,0 -31.92,16.51 -31.92,34.34z"/></g></svg>