<svg xmlns="http://www.w3.org/2000/svg" xmlns:xlink="http://www.w3.org/1999/xlink" version="1.1" x="0px" y="0px" viewBox="0 0 70 87.5" style="enable-background:new 0 0 70 70;" xml:space="preserve"><g><path d="M55.9741402,58.2945366l-0.4707031-7.699707c-0.0332031-0.5507813-0.496582-0.9697266-1.059082-0.9370117h-3.8671875   c-0.5532227-0.0332031-1.0253906,0.3862305-1.059082,0.9370117l-0.4707031,7.6992188   c-1.9233398,0.2709961-3.3989258,1.7548828-3.3989258,3.5395508c0,1.7114258,1.3574219,3.1464806,3.1660156,3.4999962   c0.4570313,1.5332031,2.0317383,2.6665039,3.8989258,2.6665039c1.9155273,0,3.5234375-1.1933594,3.9316406-2.7871094   c1.6000977-0.4858398,2.7280273-1.8325157,2.7280273-3.3793907C59.3730659,60.0494194,57.8979683,58.5655327,55.9741402,58.2945366   z"/><path d="M38.4657784,58.2985649l-0.4699707-7.7000122c-0.0400391-0.5499878-0.5-0.9699707-1.0599976-0.9400024H33.065815   c-0.5600586-0.0299683-1.0200195,0.3900146-1.0600586,0.9400024l-0.4699726,7.7000122   c-1.9199829,0.2700195-3.4000244,1.75-3.4000244,3.539978c0,1.710022,1.3600464,3.1400108,3.1700439,3.4999962   c0.4599609,1.5300293,2.0299702,2.6600342,3.8999653,2.6600342c1.9100342,0,3.5200195-1.1900024,3.9299927-2.7900391   c1.6000366-0.4799805,2.7300415-1.8299522,2.7300415-3.3699913C41.8658028,60.0485649,40.3857613,58.5685844,38.4657784,58.2985649   z"/><path d="M20.9541187,58.2945366l-0.4707031-7.699707c-0.0332031-0.5507813-0.4946289-0.9697266-1.059082-0.9370117H15.557147   c-0.5507813-0.0332031-1.0253906,0.3862305-1.059082,0.9370117l-0.4707031,7.6992188   c-1.9233398,0.2709961-3.3989258,1.7548828-3.3989258,3.5395508c0,1.7114258,1.3574219,3.1464806,3.1660156,3.4999962   c0.4570313,1.5332031,2.0317383,2.6665039,3.8989248,2.6665039c1.9155273,0,3.5234375-1.1933594,3.9316406-2.7871094   c1.6000977-0.4858398,2.7280273-1.8325157,2.7280273-3.3793907C24.3530445,60.0494194,22.8779469,58.5655327,20.9541187,58.2945366   z"/><path d="M64.5317535,38.4146538c-0.2250977-0.5039063-0.8159142-0.7294922-1.320797-0.5053711L8.6025572,38.1543999   c-0.3686523-0.4116211-1.0014648-0.4458008-1.4121094-0.0761719l-4.8579102,4.3608398   c-0.3081055,0.2768555-0.4140624,0.7148438-0.2661133,1.1015625c0.1484375,0.387207,0.5200195,0.6425781,0.934082,0.6425781   h62.5654259c0.3388672,0,0.6547852-0.1713867,0.8388672-0.4560547c0.1845703-0.2841797,0.2124023-0.6420898,0.0742188-0.9516602   L64.5317535,38.4146538z"/><path d="M29.2075367,18.6103325v-0.9222412c0-0.5522461-0.4477539-1-1-1h-4.4824219c-0.5522461,0-1,0.4477539-1,1v4.0246582   c1.5266724-0.5907593,3.140625-0.9611816,4.7907715-1.0759888C28.0234547,19.9116631,28.5932789,19.2377129,29.2075367,18.6103325z   "/><path d="M47.9824409,13.6284599v-1.9706421c0-0.5522461-0.4477539-1-1-1h-6.1308594c-0.5522461,0-1,0.4477539-1,1v2.0114136   c0.3634644-0.0252075,0.7280273-0.0407715,1.0939941-0.0407715H47.9824409z"/><path d="M61.3039742,14.1831474c0.0984497,0.1013184,0.2252808,0.2363281,0.3669434,0.3909302v-2.6037598   c0-0.5522461-0.4477539-1-1-1h-1.1398926c0.5147095-2.5115356,3.1644287-6.0297246,4.276123-7.3159184   c0.3613243-0.4179688,0.3154259-1.0493164-0.1025391-1.4106445c-0.418457-0.3618163-1.0498047-0.3154296-1.4101563,0.1020508   c-0.4705811,0.5442505-4.249939,5.0172119-4.7808228,8.6245117h-1.2929077c-0.5522461,0-1,0.4477539-1,1v1.6581421h4.6950684   C60.433857,13.6284599,60.927021,13.8252373,61.3039742,14.1831474z"/><path d="M67.5257721,25.7185478c-3.2399902-7.1699829-6.7700157-10.6599731-6.9099693-10.8099976   c-0.1900024-0.1799927-0.4400024-0.2799683-0.7000122-0.2799683H40.9457588   c-5.1799927,0-10.0599995,2.6599731-12.8799458,6.9799805c-4.2300415,0.1599731-8.2200317,2.0499878-11.0300293,5.2399902   L8.2310362,36.8769341c0.258667,0.0498047,0.5092163,0.1311646,0.7286987,0.2759399l54.0732422-0.2426758   c0.1894531-0.0581055,0.3852539-0.0874023,0.5849609-0.0874023c0.3596191,0,0.6987877,0.1069336,0.99786,0.2801514v-1.5043945   c0-0.7799683,0.2699585-1.5,0.8599854-2.3300171l1.5100098-2.1399536   C68.1057892,29.5385551,68.3158112,27.4685478,67.5257721,25.7185478z M53.7557564,29.9485893h-3.0750122   c0.0255127-0.1016235,0.0550537-0.2020264,0.0550537-0.3128052v-2.897644c0-1.2352295-0.8699951-2.239563-1.9400024-2.239563   h-4.4899902c-1.0700073,0-1.9400024,1.0043335-1.9400024,2.239563v2.897644c0,0.1107788,0.029541,0.2111816,0.0550537,0.3128052   h-2.4850464c-2.8600464,0-5.1900024-2.3300171-5.1900024-5.1900024c0-2.8600464,2.3299561-5.1900024,5.1900024-5.1900024   h13.8199463c2.8600464,0,5.1900024,2.3299561,5.1900024,5.1900024   C58.9457588,27.6185722,56.6158028,29.9485893,53.7557564,29.9485893z"/></g></svg>