<svg xmlns="http://www.w3.org/2000/svg" data-name="Layer 1" viewBox="0 0 100 125" x="0px" y="0px"><title>All4</title><path d="M98,60a21.23,21.23,0,0,0-2-1c-7.43-3.26-14.83-6.57-22.31-9.72a6.62,6.62,0,0,1-3.95-4.56c-2.27-8.16-4.36-16.37-6.55-24.55C62.31,17,61.51,14,60.47,11c-0.81-2.34-2.22-3-4.41-2.57-6.75,1.4-13.51,2.79-20.26,4.22Q19.65,16.07,3.51,19.54c-2.84.6-4,2.5-3.3,5.31C3.77,38.49,7.3,52.14,10.92,65.77c0.94,3.54,2,7,5.53,9.15,7.58,4.73,15,9.75,22.47,14.62,2,1.29,4.07,2.36,6.8,2.13a6.93,6.93,0,0,0,3.35-1.09l48.48-24.1A3.89,3.89,0,0,0,100,63.14,3.33,3.33,0,0,0,98,60Zm-80,.4a1.71,1.71,0,0,1-2.27-1.2L7.58,28A1.83,1.83,0,0,1,9,25.75L54.46,15.65a2,2,0,0,1,2.37,1.42l6.84,24.77a2.1,2.1,0,0,1-1.28,2.48ZM63.81,79.45L58.06,76.6l12-5.69,5.74,2.36Z"/></svg>