<svg xmlns="http://www.w3.org/2000/svg" xmlns:xlink="http://www.w3.org/1999/xlink" version="1.1" x="0px" y="0px" viewBox="0 0 33 41.25" enable-background="new 0 0 33 33" xml:space="preserve"><g><path d="M29.5,5.24h-26c-1.66,0-3,1.34-3,3v14.43c0,1.66,1.34,3,3,3h1.53c0.27,0,0.5,0.22,0.5,0.5c0,0.28-0.23,0.5-0.5,0.5H4.06   v0.09c0,0.55,0.45,1,1,1h2.13c0.55,0,1-0.45,1-1v-1.09h17.59c0.28,0,0.5,0.22,0.5,0.5c0,0.28-0.22,0.5-0.5,0.5h-0.97v0.09   c0,0.55,0.45,1,1,1h2.13c0.55,0,1-0.45,1-1v-1.09h0.56c1.66,0,3-1.34,3-3V8.24C32.5,6.58,31.16,5.24,29.5,5.24z M23.09,21.67   c0,0.55-0.45,1-1,1H4.5c-0.55,0-1-0.45-1-1V9.24c0-0.55,0.45-1,1-1h17.59c0.55,0,1,0.45,1,1V21.67z M26.03,22.67   c0,0.28-0.23,0.5-0.5,0.5c-0.28,0-0.5-0.22-0.5-0.5V8.24c0-0.28,0.22-0.5,0.5-0.5c0.27,0,0.5,0.22,0.5,0.5V22.67z M27.91,12.66   c-0.1-0.19-0.15-0.4-0.15-0.63c0-0.83,0.68-1.49,1.5-1.49c0.23,0,0.44,0.05,0.63,0.14L27.91,12.66z M29.263,21.356   c-0.5599,0-1.008-0.432-1.008-0.992c0-0.5601,0.4481-0.9919,1.008-0.9919c0.5601,0,0.992,0.4319,0.992,0.9919   C30.255,20.924,29.8231,21.356,29.263,21.356z M29.263,17.388c-0.5599,0-1.008-0.432-1.008-0.992   c0-0.5601,0.4481-0.992,1.008-0.992c0.5601,0,0.992,0.4319,0.992,0.992C30.255,16.956,29.8231,17.388,29.263,17.388z M29.26,13.52   c-0.23,0-0.45-0.05-0.64-0.15l1.9901-1.98c0.1,0.19,0.15,0.41,0.15,0.64C30.76,12.86,30.09,13.52,29.26,13.52z"/><g><g><path d="M9.14,15.825c-0.4125,0.4125-1.0325,0.3875-1.42,0c-0.39-0.39-0.39-1.02,0-1.41l2.82-2.81c0.39-0.4,1.02-0.4,1.41,0     c0.39,0.39,0.39,1.02,0,1.41L9.14,15.825z"/><path d="M15.44,14.345l-4.97,4.97c-0.3986,0.3787-1.005,0.3943-1.42,0c-0.39-0.39-0.39-1.03,0-1.42l4.97-4.97     c0.39-0.39,1.03-0.39,1.42,0C15.83,13.315,15.83,13.955,15.44,14.345z"/></g></g></g><text x="0" y="48" fill="#000000" font-size="5px" font-weight="bold" font-family="'Helvetica Neue', Helvetica, Arial-Unicode, Arial, Sans-serif">Created by Vectors Point</text><text x="0" y="53" fill="#000000" font-size="5px" font-weight="bold" font-family="'Helvetica Neue', Helvetica, Arial-Unicode, Arial, Sans-serif">from the Noun Project</text></svg>