<svg xmlns="http://www.w3.org/2000/svg" data-name="Kitchen Objects" viewBox="0 0 60 75" x="0px" y="0px"><title>Kitchen Objects - 001 - Oven</title><path d="M9,46a1.0013,1.0013,0,0,0,1,1H50a1.0013,1.0013,0,0,0,1-1V37H9Z"/><circle cx="11" cy="12" r="2"/><circle cx="39" cy="12" r="2"/><circle cx="21" cy="12" r="2"/><path d="M50,24H10a1.0013,1.0013,0,0,0-1,1V35H51V25A1.0013,1.0013,0,0,0,50,24ZM13,28H12a1,1,0,0,1,0-2h1a1,1,0,0,1,0,2Zm13,0H17a1,1,0,0,1,0-2h9a1,1,0,0,1,0,2Z"/><circle cx="49" cy="12" r="2"/><path d="M54,4H53V2a2.002,2.002,0,0,0-2-2H33a2.002,2.002,0,0,0-2,2V4H29V2a2.002,2.002,0,0,0-2-2H9A2.002,2.002,0,0,0,7,2V4H6A3.00328,3.00328,0,0,0,3,7V57a3.00328,3.00328,0,0,0,3,3H54a3.00328,3.00328,0,0,0,3-3V7A3.00328,3.00328,0,0,0,54,4ZM33,2H51V4H33ZM43,12a4,4,0,1,1-4-4A4.00458,4.00458,0,0,1,43,12ZM31,10a1,1,0,0,1,2,0v4a1,1,0,0,1-2,0ZM28,9a1,1,0,0,1,1,1v4a1,1,0,0,1-2,0V10A1,1,0,0,1,28,9ZM9,2H27V4H9ZM25,12a4,4,0,1,1-4-4A4.00458,4.00458,0,0,1,25,12ZM11,8a4,4,0,1,1-4,4A4.00458,4.00458,0,0,1,11,8ZM9,55a1,1,0,0,1-2,0V53a1,1,0,0,1,2,0Zm4,0a1,1,0,0,1-2,0V53a1,1,0,0,1,2,0Zm4,0a1,1,0,0,1-2,0V53a1,1,0,0,1,2,0Zm4,0a1,1,0,0,1-2,0V53a1,1,0,0,1,2,0Zm4,0a1,1,0,0,1-2,0V53a1,1,0,0,1,2,0Zm4,0a1,1,0,0,1-2,0V53a1,1,0,0,1,2,0Zm4,0a1,1,0,0,1-2,0V53a1,1,0,0,1,2,0Zm4,0a1,1,0,0,1-2,0V53a1,1,0,0,1,2,0Zm4,0a1,1,0,0,1-2,0V53a1,1,0,0,1,2,0Zm4,0a1,1,0,0,1-2,0V53a1,1,0,0,1,2,0Zm4,0a1,1,0,0,1-2,0V53a1,1,0,0,1,2,0Zm4,0a1,1,0,0,1-2,0V53a1,1,0,0,1,2,0Zm0-9a3.00328,3.00328,0,0,1-3,3H10a3.00328,3.00328,0,0,1-3-3V25a3.00328,3.00328,0,0,1,3-3H50a3.00328,3.00328,0,0,1,3,3ZM49,16a4,4,0,1,1,4-4A4.00458,4.00458,0,0,1,49,16Z"/></svg>