<svg xmlns="http://www.w3.org/2000/svg" xmlns:xlink="http://www.w3.org/1999/xlink" version="1.1" x="0px" y="0px" viewBox="0 0 64 80" style="enable-background:new 0 0 64 64;" xml:space="preserve"><path d="M50.3,1.7c-1.1-1.1-2.5-1.4-4-1.4c-4.8,0-9.6,0-14.4,0s-9.6,0-14.4,0c-1.5,0-2.9,0.3-4,1.4c-1.1,1.1-1.5,2.5-1.5,4.1  c0,17.4,0,34.9,0,52.3c0,0.6,0.1,1.2,0.2,1.8c0.6,2.3,2.7,3.8,5.3,3.8c4.7,0,9.4-0.1,14.1-0.1h0.3c4.7,0,9.4,0,14.1,0.1  c2.6,0,4.7-1.4,5.3-3.8c0.2-0.6,0.2-1.2,0.2-1.8c0-17.4,0-34.9,0-52.3C51.9,4.3,51.5,2.9,50.3,1.7z M27.7,2.7h8.6  c0.7,0,1.2,0.5,1.2,1.2c0,0.7-0.5,1.2-1.2,1.2h-8.6c-0.7,0-1.2-0.5-1.2-1.2C26.5,3.2,27,2.7,27.7,2.7z M32.1,61.1h-0.1  c-1.4,0-2.6-1.2-2.6-2.6c0-1.4,1.2-2.6,2.6-2.6c0,0,0.1,0,0.1,0c0,0,0.1,0,0.1,0c1.4,0,2.6,1.2,2.6,2.6  C34.7,59.9,33.5,61.1,32.1,61.1z M48.2,53.2H15.8V7.7h32.4V53.2z"/></svg>