<svg xmlns="http://www.w3.org/2000/svg" data-name="Layer 1" viewBox="0 0 100 125" x="0px" y="0px"><title>Artboard 25</title><path d="M92.35,28.87a7.56,7.56,0,0,0-7.11-5H79.08L78.29,39.1a3.24,3.24,0,0,1-.11.69,3.45,3.45,0,0,1-.25.65,3.69,3.69,0,0,1-.38.6,3.84,3.84,0,0,1-.51.53,4,4,0,0,1-.61.43,4.26,4.26,0,0,1-.68.32,4.36,4.36,0,0,1-.73.2,4.28,4.28,0,0,1-.75.07H25.76a4.28,4.28,0,0,1-.75-.07,4.36,4.36,0,0,1-.73-.2A4.26,4.26,0,0,1,23.6,42a4,4,0,0,1-.61-.43,3.84,3.84,0,0,1-.51-.53,3.66,3.66,0,0,1-.39-.6,3.51,3.51,0,0,1-.25-.65,3.27,3.27,0,0,1-.11-.69l-.79-15.22H14.78a7.56,7.56,0,0,0-7.11,5l-5.08,14A26.65,26.65,0,0,0,2,59L4.8,69.34A14.37,14.37,0,0,0,18.65,79.88h4.72L22.46,87a7.14,7.14,0,0,0,7.09,8H70.47a7.14,7.14,0,0,0,4.62-1.69h0A7.14,7.14,0,0,0,77.56,87l-.91-7.16h4.71A14.37,14.37,0,0,0,95.21,69.35l2.53-9.16A42.06,42.06,0,0,0,99,50.89h0a21,21,0,0,0-1.26-7.17ZM18.5,62.42A4.39,4.39,0,1,1,22.89,58,4.39,4.39,0,0,1,18.5,62.42ZM33.08,86.85,34.87,64H65.15l1.79,22.89Zm-3.74-51.3-1-26.83a3.72,3.72,0,0,1,0-.77,3.5,3.5,0,0,1,.54-1.36A3.74,3.74,0,0,1,29.39,6,3.88,3.88,0,0,1,30,5.56a3.77,3.77,0,0,1,.66-.35A3.86,3.86,0,0,1,31.35,5a4.16,4.16,0,0,1,.8-.08H67.87a4.16,4.16,0,0,1,.8.08,3.88,3.88,0,0,1,.73.22,3.83,3.83,0,0,1,.66.35,4,4,0,0,1,.58.47,3.77,3.77,0,0,1,.46.57,3.58,3.58,0,0,1,.34.65,3.54,3.54,0,0,1,.2.71,3.72,3.72,0,0,1,0,.77l-1,26.83Z"/></svg>