<svg xmlns="http://www.w3.org/2000/svg" xmlns:xlink="http://www.w3.org/1999/xlink" version="1.1" x="0px" y="0px" viewBox="0 0 48 60" enable-background="new 0 0 48 48" xml:space="preserve"><g><path d="M34.2,24.6c3.4,0,6.1-2.7,6.1-6.1s-2.7-6.1-6.1-6.1s-6.1,2.7-6.1,6.1S30.8,24.6,34.2,24.6z M35.6,15.3   c0.3-0.3,1.1,0,1.7,0.7c0.7,0.7,1,1.4,0.7,1.7c-0.3,0.3-1.1,0-1.7-0.7C35.6,16.3,35.3,15.6,35.6,15.3z"/><path d="M34.2,28.6c5.6,0,10.1-4.5,10.1-10.1S39.8,8.4,34.2,8.4c-5.6,0-10.1,4.5-10.1,10.1S28.6,28.6,34.2,28.6z M34.2,10.4   c4.5,0,8.1,3.6,8.1,8.1s-3.6,8.1-8.1,8.1s-8.1-3.6-8.1-8.1S29.7,10.4,34.2,10.4z"/><path d="M46.3,18.8c-0.1,6.5-5.5,11.8-12.1,11.8c-6.7,0-12.1-5.4-12.1-12.1H3c-1.7,0-3,1.3-3,3v10.9c0,1.7,1.3,3,3,3h42   c1.7,0,3-1.3,3-3V21.5C48,20.3,47.3,19.2,46.3,18.8z M6.4,32.9c-0.6,0-1.1-0.5-1.1-1.1s0.5-1.1,1.1-1.1s1.1,0.5,1.1,1.1   S7,32.9,6.4,32.9z M9.9,32.9c-0.6,0-1.1-0.5-1.1-1.1s0.5-1.1,1.1-1.1s1.1,0.5,1.1,1.1S10.5,32.9,9.9,32.9z M13.4,32.9   c-0.6,0-1.1-0.5-1.1-1.1s0.5-1.1,1.1-1.1s1.1,0.5,1.1,1.1S14,32.9,13.4,32.9z M15.9,27.8H3.9c-0.6,0-1-0.4-1-1s0.4-1,1-1h11.9   c0.6,0,1,0.4,1,1S16.4,27.8,15.9,27.8z M15.9,23.3H3.9c-0.6,0-1-0.4-1-1s0.4-1,1-1h11.9c0.6,0,1,0.4,1,1S16.4,23.3,15.9,23.3z"/><rect x="6.5" y="37.4" width="4.1" height="2.2"/><rect x="37.4" y="37.4" width="4.1" height="2.2"/></g></svg>