<svg xmlns="http://www.w3.org/2000/svg" xmlns:xlink="http://www.w3.org/1999/xlink" viewBox="0 0 761 810" version="1.1" x="0px" y="0px"><title>Scooter</title><desc>Created with Sketch.</desc><g stroke="none" stroke-width="1" fill="none" fill-rule="evenodd"><g transform="translate(-370.000000, -5599.000000)" fill="#000000" fill-rule="nonzero"><path d="M537.666505,6165.23005 L511.241862,6138.90029 L455.441862,6083.30029 L444.541862,6080.40029 C438.041862,6078.60029 432.441862,6076.50029 430.741862,6075.10029 C425.941862,6071.00029 426.141862,6068.20029 432.941862,6045.20029 C444.941862,6004.90029 481.041862,5886.40029 482.541862,5882.20029 C484.641862,5876.50029 487.841862,5874.60029 494.341862,5875.10029 C497.141862,5875.40029 500.041862,5875.80029 500.741862,5876.00029 C501.741862,5876.30029 510.341862,5849.30029 532.041862,5777.90029 C548.541862,5723.70029 562.241862,5678.30029 562.541862,5676.90029 C563.141862,5674.40029 562.941862,5674.30029 542.441862,5668.50029 L521.841862,5662.60029 L519.141862,5665.20029 C517.641862,5666.70029 515.041862,5668.10029 513.441862,5668.50029 C509.641862,5669.20029 421.041862,5644.10029 417.041862,5641.20029 C412.241862,5637.60029 412.241862,5633.90029 416.741862,5618.50029 C420.741862,5604.90029 422.541862,5601.40029 426.441862,5599.80029 C427.541862,5599.40029 429.341862,5599.00029 430.441862,5599.00029 C433.741862,5598.90029 521.641862,5624.50029 524.441862,5626.30029 C527.841862,5628.60029 529.241862,5632.40029 528.441862,5637.90029 L527.841862,5642.40029 L580.541862,5657.40029 C619.241862,5668.40029 633.341862,5672.10029 633.741862,5671.10029 C634.741862,5668.10029 639.141862,5664.10029 642.041862,5663.50029 C644.441862,5663.10029 656.441862,5666.10029 689.841862,5675.50029 C714.341862,5682.50029 735.641862,5688.80029 737.141862,5689.50029 C740.041862,5691.00029 742.941862,5695.60029 742.941862,5698.70029 C742.941862,5701.30029 737.241862,5721.60029 735.241862,5726.20029 C733.541862,5730.20029 729.641862,5732.90029 725.741862,5732.90029 C724.441862,5732.90029 703.241862,5727.10029 678.641862,5720.10029 C627.841862,5705.60029 627.541862,5705.50029 627.441862,5697.40029 L627.341862,5692.50029 L606.841862,5686.80029 C595.641862,5683.60029 585.741862,5681.00029 584.941862,5680.90029 C583.841862,5680.90029 575.941862,5705.70029 553.141862,5781.10029 C536.541862,5836.30029 522.941862,5881.70029 522.941862,5882.10029 C522.941862,5882.50029 524.841862,5883.70029 527.241862,5884.70029 C529.541862,5885.70029 532.041862,5887.30029 532.741862,5888.10029 C536.141862,5892.30029 535.641862,5894.70029 512.941862,5968.90029 L490.841862,6041.30029 L561.152497,6111.61093 C579.90616,6130.36459 605.341595,6140.90028 631.86328,6140.90025 C789.972947,6140.90008 869.13826,6140.9 869.359219,6140.9 C882.870967,6082.06081 935.560681,6038.19971 998.5,6038.19971 C1071.67773,6038.19971 1131,6097.52198 1131,6170.69971 C1131,6170.74579 1130.99995,6170.79206 1130.99985,6170.83852 C1130.97106,6183.82572 1120.43477,6194.33871 1107.44753,6194.33871 C1097.17652,6194.33871 1088.85022,6186.01241 1088.85022,6175.7414 C1088.85022,6175.35591 1088.8622,6174.97051 1088.88616,6174.58576 C1088.96206,6173.36685 1089,6172.23816 1089,6171.19971 C1089,6121.49408 1048.70563,6081.19971 999,6081.19971 C949.294373,6081.19971 909,6121.49408 909,6171.19971 C909,6183.97902 898.640323,6194.33869 885.861015,6194.33869 L608.269206,6194.39231 C581.803184,6194.39742 556.414437,6183.91067 537.666505,6165.23005 Z M999,6096.00029 C1040.42136,6096.00029 1074,6129.57894 1074,6171.00029 C1074,6212.42165 1040.42136,6246.00029 999,6246.00029 C957.578644,6246.00029 924,6212.42165 924,6171.00029 C924,6129.57894 957.578644,6096.00029 999,6096.00029 Z M419.303455,6092.19362 C425.503455,6090.29362 430.903455,6090.29362 437.403455,6092.19362 C448.103455,6095.39362 457.403455,6108.19362 457.403455,6119.59362 C457.403455,6124.19362 427.403455,6223.79362 423.803455,6231.29362 C420.803455,6237.39362 414.503455,6242.59362 406.603455,6245.09362 C389.203455,6250.79362 370.203455,6237.09362 370.003455,6218.59362 C369.903455,6212.89362 371.903455,6205.59362 385.303455,6161.59362 C393.703455,6133.79362 401.503455,6109.19362 402.603455,6106.79362 C405.303455,6101.19362 413.503455,6093.99362 419.303455,6092.19362 Z"/></g></g></svg>