<svg xmlns="http://www.w3.org/2000/svg" xmlns:xlink="http://www.w3.org/1999/xlink" xml:space="preserve" version="1.1" style="shape-rendering:geometricPrecision;text-rendering:geometricPrecision;image-rendering:optimizeQuality;" viewBox="0 0 847 1058.75" x="0px" y="0px" fill-rule="evenodd" clip-rule="evenodd"><defs><style type="text/css">
   
    .fil0 {fill:black}
   
  </style></defs><g><path class="fil0" d="M792 241c-13,0 -23,0 -23,0l0 114 23 0c35,0 35,-114 0,-114z"/><path class="fil0" d="M732 701c14,0 25,-12 25,-26l0 -470c0,-14 -11,-25 -25,-25l-25 0 0 -26 13 0 0 -8 -43 0 0 8 13 0 0 26c-189,0 -379,0 -568,0 -14,0 -26,11 -26,25 0,57 0,114 0,171 0,14 12,25 26,25l59 0 0 66 7 0 0 26 -131 0c-14,0 -25,12 -25,26l0 156c0,14 11,26 25,26l675 0 0 0zm-20 -346l0 45 -120 0 0 -45 120 0zm-6 -109c0,19 -30,19 -30,0 0,-20 30,-20 30,0zm0 62c0,19 -30,19 -30,0 0,-20 30,-20 30,0zm-46 -62c0,19 -30,19 -30,0 0,-20 30,-20 30,0zm0 62c0,19 -30,19 -30,0 0,-20 30,-20 30,0zm-47 -62c0,19 -29,19 -29,0 0,-20 29,-20 29,0zm0 62c0,19 -29,19 -29,0 0,-20 29,-20 29,0zm-417 159l7 0 0 -24 24 0 0 -6 -24 0 0 -36 83 0c14,0 26,-11 26,-25l0 -54 131 0c33,0 59,27 59,59l0 87c0,14 -11,25 -25,25l-281 0 0 -26z"/></g></svg>