<svg xmlns="http://www.w3.org/2000/svg" xmlns:xlink="http://www.w3.org/1999/xlink" version="1.1" x="0px" y="0px" viewBox="0 0 50 62.5" enable-background="new 0 0 50 50" xml:space="preserve"><g><path d="M33.2323,6.9626l-1.71,1.26c0.01,0.14,0,0.27-0.02,0.4c-0.0099,0.18-0.04,0.36-0.09,0.53c1.32,4.22,1.81,10.05,1.96,12.56   h2.46C35.6623,18.9126,35.0723,11.6726,33.2323,6.9626z"/><path d="M37.9462,34.4087c-0.64-3.33-0.73-6.33-0.04-8.85c0.09-0.35,0.08-0.72-0.07-1.05l-0.81-1.8h-4.81l-0.81,1.8   c-0.16,0.33-0.17,0.7-0.08,1.05c0.69,2.52,0.6,5.52-0.03,8.85c-0.84,4.25-1.13,8.27-0.33,11.85c0.1299,0.6,0.09,1.22-0.08,1.82   l-0.15,0.53c-0.06,0.2,0.09,0.39,0.29,0.39h7.19c0.2,0,0.35-0.19,0.29-0.39l-0.16-0.53c-0.17-0.6-0.2-1.22-0.0699-1.82   C39.0762,42.6787,38.7862,38.6587,37.9462,34.4087z"/><path d="M27.4723,7.1626c-4.63-5.48-10.99-7.73-14.2-5c-0.43,0.36-0.79,0.8-1.05,1.3c1.01-0.83,2.32-1.28,3.8-1.28   c3.41,0,7.46,2.27,10.58,5.92c2.91,3.4,4.49,7.38,4.21,10.63c-0.14,1.58-0.71,2.9-1.67,3.85c0.32-0.15,0.61-0.35,0.89-0.58   C33.2423,19.2926,32.1023,12.6526,27.4723,7.1626z"/><path d="M12.8723,4.2326c-0.95,0.8-1.48,1.97-1.62,3.35c0.25,2.91,1.75,6.34,4.34,9.41c3.06,3.63,6.89,5.84,10.04,6.14   c0.97-0.1,1.84-0.43,2.54-1.0099c2.95-2.45,1.9-8.4301-2.33-13.37C21.6123,3.8026,15.8123,1.7826,12.8723,4.2326z M25.2796,12.2673   c0.2015,0,0.3602,0.1588,0.3602,0.3602c0,0.2015-0.1588,0.3603-0.3602,0.3603c-0.2015,0-0.3603-0.1588-0.3603-0.3603   C24.9193,12.426,25.078,12.2673,25.2796,12.2673z M24.2537,8.866c0.2565,0,0.458,0.2076,0.458,0.4641   c0,0.2504-0.2015,0.4579-0.458,0.4579s-0.4641-0.2076-0.4641-0.4579C23.7896,9.0736,23.9972,8.866,24.2537,8.866z M24.5346,10.8445   c0,0.1954-0.1588,0.3541-0.3541,0.3541c-0.1954,0-0.3542-0.1588-0.3542-0.3541c0-0.2015,0.1588-0.3604,0.3542-0.3604   C24.3758,10.4841,24.5346,10.6429,24.5346,10.8445z M23.008,9.1957c0,0.2687-0.2198,0.4885-0.4885,0.4885   S22.031,9.4644,22.031,9.1957c0-0.2687,0.2198-0.4885,0.4885-0.4885S23.008,8.927,23.008,9.1957z M21.8966,7.1379   c0.2687,0,0.4946,0.2198,0.4946,0.4885c0,0.2748-0.226,0.4946-0.4946,0.4946c-0.2747,0-0.4946-0.2198-0.4946-0.4946   C21.4019,7.3577,21.6218,7.1379,21.8966,7.1379z M20.9501,8.0721c0,0.2198-0.1832,0.3969-0.403,0.3969   c-0.226,0-0.403-0.1771-0.403-0.3969c0-0.226,0.1771-0.403,0.403-0.403C20.7669,7.6691,20.9501,7.8462,20.9501,8.0721z    M19.9426,6.0143c0.2137,0,0.3847,0.171,0.3847,0.3847s-0.171,0.3847-0.3847,0.3847c-0.2138,0-0.3848-0.171-0.3848-0.3847   S19.7288,6.0143,19.9426,6.0143z M19.0693,7.0463c0,0.1588-0.1282,0.2931-0.2931,0.2931c-0.1588,0-0.2931-0.1343-0.2931-0.2931   c0-0.1649,0.1343-0.2931,0.2931-0.2931C18.9411,6.7532,19.0693,6.8814,19.0693,7.0463z M18.3121,5.2449   c0.2504,0,0.4519,0.2015,0.4519,0.4518s-0.2015,0.4519-0.4519,0.4519c-0.2503,0-0.4518-0.2015-0.4518-0.4519   S18.0618,5.2449,18.3121,5.2449z M17.2374,6.5394c0.2076,0,0.3786,0.171,0.3786,0.3786c0,0.2076-0.171,0.3786-0.3786,0.3786   c-0.2076,0-0.3786-0.171-0.3786-0.3786C16.8588,6.7104,17.0298,6.5394,17.2374,6.5394z M16.4008,5.1655   c0.2504,0,0.458,0.2076,0.458,0.4641c0,0.2504-0.2076,0.458-0.458,0.458c-0.2564,0-0.4641-0.2076-0.4641-0.458   C15.9367,5.3731,16.1444,5.1655,16.4008,5.1655z M15.9428,6.7532c0.2076,0,0.3786,0.171,0.3786,0.3847   c0,0.2076-0.171,0.3785-0.3786,0.3785c-0.2137,0-0.3847-0.171-0.3847-0.3785C15.5581,6.9241,15.7291,6.7532,15.9428,6.7532z    M15.0574,5.6967c0.2626,0,0.4763,0.2137,0.4763,0.4763S15.32,6.6494,15.0574,6.6494s-0.4763-0.2137-0.4763-0.4763   S14.7948,5.6967,15.0574,5.6967z M13.0453,7.1409c0-0.2137,0.171-0.3847,0.3847-0.3847c0.2076,0,0.3786,0.171,0.3786,0.3847   c0,0.2076-0.171,0.3786-0.3786,0.3786C13.2163,7.5195,13.0453,7.3486,13.0453,7.1409z M13.427,8.9332   c0-0.2198,0.1771-0.397,0.3909-0.397c0.2198,0,0.3969,0.1771,0.3969,0.397c0,0.2198-0.1771,0.3969-0.3969,0.3969   C13.6041,9.3301,13.427,9.153,13.427,8.9332z M14.3857,10.1361c0.1954,0,0.3542,0.1588,0.3542,0.3542   c0,0.1954-0.1588,0.3542-0.3542,0.3542c-0.1954,0-0.3542-0.1588-0.3542-0.3542C14.0315,10.2949,14.1903,10.1361,14.3857,10.1361z    M14.1109,12.0535c0-0.2443,0.1954-0.4396,0.4335-0.4396s0.4336,0.1954,0.4336,0.4396c0,0.2382-0.1954,0.4335-0.4336,0.4335   S14.1109,12.2917,14.1109,12.0535z M14.6971,14.2579c-0.171,0-0.3114-0.1343-0.3114-0.3053c0-0.171,0.1404-0.3053,0.3114-0.3053   c0.1649,0,0.3054,0.1343,0.3054,0.3053C15.0025,14.1236,14.862,14.2579,14.6971,14.2579z M14.8925,8.4691   c-0.2809,0-0.5068-0.226-0.5068-0.5068c0-0.2809,0.226-0.5068,0.5068-0.5068s0.5068,0.226,0.5068,0.5068   C15.3994,8.2431,15.1734,8.4691,14.8925,8.4691z M15.9123,15.7296c-0.1954,0-0.3542-0.1588-0.3542-0.3542   c0-0.2015,0.1588-0.3603,0.3542-0.3603c0.2015,0,0.3603,0.1588,0.3603,0.3603C16.2726,15.5708,16.1138,15.7296,15.9123,15.7296z    M17.2741,17.7081c-0.2321,0-0.4214-0.1832-0.4214-0.4152s0.1893-0.4214,0.4214-0.4214c0.232,0,0.4152,0.1893,0.4152,0.4214   S17.5061,17.7081,17.2741,17.7081z M18.2022,18.8195c-0.2198,0-0.403-0.1771-0.403-0.403c0-0.226,0.1832-0.4092,0.403-0.4092   c0.2259,0,0.4091,0.1832,0.4091,0.4092C18.6113,18.6423,18.4281,18.8195,18.2022,18.8195z M19.7166,19.5217   c-0.1893,0-0.342-0.1526-0.342-0.3419c0-0.1893,0.1526-0.342,0.342-0.342c0.1893,0,0.3419,0.1526,0.3419,0.342   C20.0586,19.369,19.9059,19.5217,19.7166,19.5217z M21.0172,19.8942c-0.1038,0-0.1954-0.0855-0.1954-0.1954   c0-0.1099,0.0916-0.1954,0.1954-0.1954c0.11,0,0.2015,0.0855,0.2015,0.1954C21.2188,19.8087,21.1272,19.8942,21.0172,19.8942z    M21.9603,21.2498c-0.171,0-0.3114-0.1404-0.3114-0.3114c0-0.1771,0.1404-0.3175,0.3114-0.3175   c0.1771,0,0.3176,0.1404,0.3176,0.3175C22.2779,21.1093,22.1374,21.2498,21.9603,21.2498z M22.8125,20.3338   c-0.1526,0-0.2747-0.1221-0.2747-0.2747c0-0.1466,0.1221-0.2687,0.2747-0.2687c0.1466,0,0.2687,0.1221,0.2687,0.2687   C23.0813,20.2117,22.9591,20.3338,22.8125,20.3338z M23.7041,21.7058c-0.171,0-0.3115-0.1404-0.3115-0.3114   c0-0.1771,0.1405-0.3176,0.3115-0.3176c0.1771,0,0.3175,0.1404,0.3175,0.3176C24.0216,21.5654,23.8812,21.7058,23.7041,21.7058z    M24.0216,20.0041c0-0.171,0.1343-0.3053,0.3054-0.3053c0.1648,0,0.2992,0.1343,0.2992,0.3053   c0,0.1649-0.1344,0.2992-0.2992,0.2992C24.156,20.3033,24.0216,20.169,24.0216,20.0041z M24.5407,21.2498   c-0.171,0-0.3114-0.1404-0.3114-0.3114c0-0.1771,0.1404-0.3175,0.3114-0.3175c0.1771,0,0.3176,0.1404,0.3176,0.3175   C24.8582,21.1093,24.7177,21.2498,24.5407,21.2498z M24.2323,18.2826c-0.41,0.35-0.94,0.52-1.58,0.52c-0.1,0-0.22,0-0.32-0.01   c-1.59-0.15-3.48-1.31-4.93-3.03c-1.24-1.47-2.02-3.16-2.14-4.64c-0.11-1.1,0.18-1.9901,0.8-2.51c0.4-0.34,0.92-0.53,1.55-0.53   c1.64,0,3.7,1.2,5.27,3.05c1.1,1.32,1.85,2.81,2.09,4.1801C25.2023,16.6326,24.9323,17.6926,24.2323,18.2826z M25.3284,19.595   c-0.1221,0-0.226-0.0977-0.226-0.226c0-0.1221,0.1038-0.226,0.226-0.226c0.1282,0,0.226,0.1038,0.226,0.226   C25.5543,19.4973,25.4566,19.595,25.3284,19.595z M25.6215,17.0119c0-0.2259,0.1832-0.4091,0.4091-0.4091   c0.2259,0,0.4091,0.1832,0.4091,0.4091c0,0.226-0.1832,0.4092-0.4091,0.4092C25.8047,17.4211,25.6215,17.2379,25.6215,17.0119z    M26.0184,20.5598c-0.1038,0-0.1832-0.0793-0.1832-0.1832s0.0794-0.1832,0.1832-0.1832c0.1039,0,0.1832,0.0794,0.1832,0.1832   S26.1223,20.5598,26.0184,20.5598z M26.3848,18.7095c-0.1954,0-0.3542-0.1588-0.3542-0.3481c0-0.1954,0.1588-0.3542,0.3542-0.3542   c0.1954,0,0.348,0.1588,0.348,0.3542C26.7329,18.5508,26.5802,18.7095,26.3848,18.7095z M27.0077,19.6988   c-0.1099,0-0.2015-0.0855-0.2015-0.1954s0.0916-0.2015,0.2015-0.2015s0.1954,0.0916,0.1954,0.2015S27.1176,19.6988,27.0077,19.6988   z M27.5511,18.0684c-0.1954,0-0.3541-0.1588-0.3541-0.3603c0-0.1954,0.1588-0.3542,0.3541-0.3542   c0.1954,0,0.3542,0.1588,0.3542,0.3542C27.9053,17.9096,27.7465,18.0684,27.5511,18.0684z M27.9053,15.5647   c0,0.3053-0.2443,0.5496-0.5496,0.5496c-0.2992,0-0.5496-0.2443-0.5496-0.5496c0-0.2992,0.2504-0.5496,0.5496-0.5496   C27.661,15.0151,27.9053,15.2655,27.9053,15.5647z M26.7634,13.1527c0.3054,0,0.5496,0.2503,0.5496,0.5557   c0,0.3053-0.2442,0.5496-0.5496,0.5496c-0.3053,0-0.5557-0.2443-0.5557-0.5496C26.2077,13.403,26.4581,13.1527,26.7634,13.1527z    M26.2199,14.9358c0,0.1954-0.1526,0.3541-0.3481,0.3541c-0.1893,0-0.348-0.1588-0.348-0.3541c0-0.1893,0.1588-0.3481,0.348-0.3481   C26.0673,14.5877,26.2199,14.7465,26.2199,14.9358z M25.5177,11.7482c-0.2504,0-0.4519-0.2015-0.4519-0.4518   s0.2015-0.4518,0.4519-0.4518s0.4518,0.2015,0.4518,0.4518S25.7681,11.7482,25.5177,11.7482z"/><path d="M28.2323,6.5126c0.78,0.92,1.46,1.87,2.04,2.82c0.15-0.26,0.22-0.55,0.24-0.82c0.0295-0.2568,0.0103-0.5104-0.035-0.7591   l3.3214-2.4448c0.25-0.18,0.35-0.51,0.23-0.79c-0.47-1.07-1.11-1.96-1.95-2.65c-0.23-0.2-0.56-0.18-0.8-0.01l-3.42,2.53   l0.0025,0.0034c-0.7095-0.3694-1.3691-0.3594-1.9089-0.2195C26.7523,4.8726,27.5123,5.6626,28.2323,6.5126z"/><path d="M22.1223,11.7826c-1.37-1.61-3.18-2.7-4.5099-2.7c-0.38,0-0.6801,0.1-0.91,0.29c-0.36,0.31-0.52,0.91-0.45,1.67   c0.11,1.27,0.81,2.76,1.91,4.07c1.27,1.51,2.94,2.56,4.26,2.68c0.05,0.01,0.11,0.01,0.17,0.01h0.06c0.41,0,0.71-0.09,0.93-0.28   c0.42-0.36,0.57-1.1,0.4-2.04C23.7823,14.2826,23.1123,12.9726,22.1223,11.7826z"/></g></svg>