<svg xmlnsDc="http://purl.org/dc/elements/1.1/" xmlnsCc="http://creativecommons.org/ns#" xmlnsRdf="http://www.w3.org/1999/02/22-rdf-syntax-ns#" xmlnSvg="http://www.w3.org/2000/svg" xmlns="http://www.w3.org/2000/svg" xmlnsSodipodi="http://sodipodi.sourceforge.net/DTD/sodipodi-0.dtd" xmlnsInkscape="http://www.inkscape.org/namespaces/inkscape" version="1.1" x="0px" y="0px" viewBox="0 0 100 125"><g transform="translate(0,-952.36218)"><path d="m 13,965.36232 c -3.3239998,0 -6.0000001,2.5073 -6.0000001,5.656 l 0,60.65458 c 0,3.1196 2.6255203,5.6405 5.9062501,5.6874 8e-5,1.0788 1.01605,2.0492 2.09375,1.9999 l 6,0 c 1.05752,0.016 2.03125,-0.9423 2.03125,-1.9999 l 9.875,0 c 8e-5,1.0788 1.01605,2.0492 2.09375,1.9999 l 6,0 c 1.05752,0.016 2.03125,-0.9423 2.03125,-1.9999 3.30959,-0.016 5.96875,-2.5482 5.96875,-5.6874 l 0,-60.65458 c 0,-3.1487 -2.676,-5.656 -6,-5.656 z m 44,0 c -3.324,0 -6,2.5073 -6,5.656 l 0,60.65458 c 0,3.1196 2.62552,5.6405 5.90625,5.6874 8e-5,1.0788 1.01605,2.0492 2.09375,1.9999 l 6,0 c 1.05752,0.016 2.03125,-0.9423 2.03125,-1.9999 l 9.875,0 c 8e-5,1.0788 1.01605,2.0492 2.09375,1.9999 l 6,0 c 1.05752,0.016 2.03125,-0.9423 2.03125,-1.9999 3.30959,-0.016 5.96875,-2.5482 5.96875,-5.6874 l 0,-60.65458 c 0,-3.1487 -2.676,-5.656 -6,-5.656 z m -29,8.9997 c 7.15601,0 13,5.8439 13,12.9997 0,3.7583 -1.61866,7.128 -4.1875,9.49972 4.89109,2.9991 8.1875,8.36446 8.1875,14.49956 0,9.3648 -7.63485,16.9995 -17,16.9995 -9.36515,0 -17,-7.6347 -17,-16.9995 0,-6.1351 3.29641,-11.50046 8.1875,-14.49956 C 16.61866,994.48972 15,991.12002 15,987.36172 c 0,-7.1558 5.84398,-12.9997 13,-12.9997 z m 44,0 c 7.15601,0 13,5.8439 13,12.9997 0,3.7583 -1.61866,7.128 -4.1875,9.49972 4.89109,2.9991 8.1875,8.36446 8.1875,14.49956 0,9.3648 -7.63485,16.9995 -17,16.9995 -9.36515,0 -17,-7.6347 -17,-16.9995 0,-6.1351 3.29641,-11.50046 8.1875,-14.49956 C 60.61866,994.48972 59,991.12002 59,987.36172 c 0,-7.1558 5.84398,-12.9997 13,-12.9997 z m -44,3.9687 c -4.99426,0 -9,4.0368 -9,9.031 0,3.2565 1.7129,6.0785 4.28125,7.656 1.50383,-0.4393 3.07622,-0.6874 4.71875,-0.6874 1.64253,0 3.21492,0.2481 4.71875,0.6874 2.56835,-1.5774 4.28125,-4.3995 4.28125,-7.656 0,-4.9942 -4.00575,-9.031 -9,-9.031 z m 44,0 c -4.99426,0 -9,4.0368 -9,9.031 0,3.2565 1.7129,6.0785 4.28125,7.656 1.50383,-0.4393 3.07622,-0.6874 4.71875,-0.6874 1.64253,0 3.21492,0.2481 4.71875,0.6874 2.56835,-1.5775 4.28125,-4.3995 4.28125,-7.656 0,-4.9942 -4.00575,-9.031 -9,-9.031 z m -44.21875,2 c 1.12796,-0.1242 2.24314,0.8966 2.21875,2.0311 l 0,2.7811 c 0.46632,0.4209 0.8068,0.9551 0.9375,1.5938 l 2.40625,1.375 c 0.90717,0.5241 1.2562,1.8259 0.73289,2.7335 -0.52331,0.9076 -1.82481,1.2577 -2.73289,0.7352 l -2.40625,-1.4063 c -0.66578,0.2764 -1.25091,0.1476 -1.875,0 l -2.40625,1.4063 c -0.90808,0.5225 -2.20958,0.1724 -2.73289,-0.7352 -0.52331,-0.9076 -0.17428,-2.2094 0.73289,-2.7335 l 2.40625,-1.375 c 0.1307,-0.6387 0.47118,-1.1729 0.9375,-1.5938 l 0,-2.7811 c -0.0212,-0.9884 0.79853,-1.9231 1.78125,-2.0311 z m 44,0 c 1.12796,-0.1242 2.24314,0.8966 2.21875,2.0311 l 0,2.7811 c 0.46632,0.4209 0.8068,0.9551 0.9375,1.5938 l 2.40625,1.375 c 0.90717,0.5241 1.2562,1.8259 0.73289,2.7335 -0.52331,0.9076 -1.82481,1.2577 -2.73289,0.7352 l -2.40625,-1.4063 c -0.66578,0.2764 -1.25091,0.1476 -1.875,0 l -2.40625,1.4063 c -0.90808,0.5225 -2.20958,0.1724 -2.73289,-0.7352 -0.52331,-0.9076 -0.17428,-2.2094 0.73289,-2.7335 l 2.40625,-1.375 c 0.1307,-0.6387 0.47118,-1.1729 0.9375,-1.5938 l 0,-2.7811 c -0.0212,-0.9884 0.79853,-1.9231 1.78125,-2.0311 z M 28,998.36144 c -7.20339,0 -13,5.79636 -13,12.99956 0,7.2032 5.79661,12.9684 13,12.9684 7.20339,0 13,-5.7652 13,-12.9684 0,-7.2032 -5.79661,-12.99956 -13,-12.99956 z m 44,0 c -7.20339,0 -13,5.79636 -13,12.99956 0,7.2032 5.79661,12.9684 13,12.9684 7.20339,0 13,-5.7652 13,-12.9684 0,-7.2032 -5.79661,-12.99956 -13,-12.99956 z m -44,5.99976 c 3.84231,0 7,3.1576 7,6.9998 0,3.8422 -3.15769,6.9998 -7,6.9998 -3.8423,0 -7,-3.1576 -7,-6.9998 0,-3.8422 3.1577,-6.9998 7,-6.9998 z m 44,0 c 3.84231,0 7,3.1576 7,6.9998 0,3.8422 -3.15769,6.9998 -7,6.9998 -3.8423,0 -7,-3.1576 -7,-6.9998 0,-3.8422 3.1577,-6.9998 7,-6.9998 z" style="color:#000000;enable-background:accumulate;" fill="#000000" stroke="none" marker="none" visibility="visible" display="inline" overflow="visible"/></g></svg>