<svg xmlns="http://www.w3.org/2000/svg" xmlns:xlink="http://www.w3.org/1999/xlink" version="1.1" x="0px" y="0px" viewBox="0 0 33 41.25" enable-background="new 0 0 33 33" xml:space="preserve"><g><g><path d="M27.5,9.31H15.23c-2.32,0-4.49,0.66-6.33,1.81H3.81c-0.55,0-1,0.45-1,1c0,0.56,0.45,1,1,1h2.66    c-2,2.14-3.24,5.02-3.24,8.19v3.42c0,0.28-0.22,0.5-0.5,0.5c-0.27,0-0.5-0.22-0.5-0.5v-0.92c0-0.28-0.22-0.5-0.5-0.5H1    c-0.28,0-0.5,0.22-0.5,0.5v2.67c0,0.28,0.22,0.5,0.5,0.5h2.23v0.41c0,1.1,0.9,2,2,2H6.9v1c0,0.55,0.45,1,1,1h2.39    c0.56,0,1-0.45,1-1v-1h13.15v1c0,0.55,0.44,1,1,1h2.39c0.55,0,1-0.45,1-1v-1h1.67c1.11,0,2-0.9,2-2V14.31    C32.5,11.55,30.27,9.31,27.5,9.31z M7.87,15.36c0.27-0.07,0.54,0.08,0.6201,0.35c0.0699,0.27-0.09,0.54-0.35,0.61    c-0.27,0.08-0.55-0.08-0.62-0.35C7.45,15.71,7.6,15.43,7.87,15.36z M6.54,17.7c0.26-0.07,0.54,0.08,0.61,0.35    s-0.08,0.54-0.35,0.62c-0.27,0.07-0.54-0.09-0.61-0.35C6.1101,18.05,6.27,17.77,6.54,17.7z M5.88,20.99    c-0.07-0.27,0.08-0.54,0.35-0.61c0.27-0.08,0.54,0.08,0.62,0.35c0.07,0.26-0.09,0.54-0.35,0.61C6.23,21.41,5.95,21.26,5.88,20.99z     M8.32,27.36c-0.92,0-1.66-0.74-1.66-1.66c0-0.91,0.74-1.66,1.66-1.66c0.91,0,1.65,0.75,1.65,1.66    C9.97,26.62,9.23,27.36,8.32,27.36z"/></g><path d="M26.15,4.95v2.86c0,0.2761-0.2239,0.5-0.5,0.5h-0.7368c-0.1863,0-0.3572-0.1036-0.4433-0.2688L23.16,5.53   c-0.11-0.22-0.38-0.3-0.6-0.19c-0.22,0.11-0.3,0.38-0.19,0.6l1.2401,2.37h-1.3669c-0.1863,0-0.3572-0.1036-0.4433-0.2688   L20.4901,5.53c-0.1201-0.22-0.39-0.3-0.61-0.19c-0.21,0.11-0.3,0.38-0.18,0.6l1.24,2.37h-1.4868   c-0.1863,0-0.3572-0.1036-0.4433-0.2688L17.7,5.53c-0.11-0.22-0.38-0.3-0.6-0.19c-0.22,0.11-0.3,0.38-0.19,0.6l0.8571,1.6382   c0.1742,0.3329-0.0673,0.7318-0.443,0.7318H15.98c-0.2761,0-0.5-0.2239-0.5-0.5V4.95c-1.0108,0-1.8213-0.9115-1.6496-1.9525   C13.9662,2.1745,14.7459,1.61,15.58,1.61h10.47c0.8341,0,1.6138,0.5645,1.7496,1.3875C27.9713,4.0385,27.1609,4.95,26.15,4.95z"/></g></svg>