<svg xmlns="http://www.w3.org/2000/svg" xmlns:xlink="http://www.w3.org/1999/xlink" version="1.1" x="0px" y="0px" viewBox="0 0 76.049 100" enable-background="new 0 0 76.049 80" xml:space="preserve"><path d="M30.135,75.39h-4.463c-2.949,0-5.337-2.389-5.337-5.337V57.823c0-2.949,2.389-5.337,5.337-5.337h0.867v13.564  C26.539,70.132,27.88,73.195,30.135,75.39z"/><path d="M75.485,57.823v12.229c0,2.949-2.389,5.337-5.337,5.337h-4.27c2.255-2.195,3.596-5.257,3.596-9.34V52.486h0.674  C73.096,52.486,75.485,54.874,75.485,57.823z"/><path d="M50.963,46.652c-2.421,0-3.609-1.368-3.554-3.37c0.073-2.64,2.585-2.919,3.441-2.914c-0.702-0.552-1.583-0.885-2.542-0.885  c-2.274,0-4.123,1.848-4.123,4.122c0,2.271,1.849,4.121,4.123,4.121c1.068,0,2.041-0.413,2.774-1.083  C51.043,46.644,51,46.652,50.963,46.652z"/><path d="M59.215,46.773c-1.179-0.046-2.358,0-3.531,0c-0.672,0-1.286-0.031-1.869,0c-1.083,2.112-3.279,3.444-5.809,3.444  c-3.602,0-6.532-2.931-6.532-6.531c0-3.602,2.931-6.531,6.532-6.531c2.422,0,4.539,1.314,5.666,3.281c0.396-0.009,0.8,0,1.229,0  c1.164,0,2.326-0.031,3.49,0c0.721,0.02,1.441-0.013,2.16,0c-1.955-4.252-6.246-7.104-11.223-7.104h-2.645  c-6.814,0-12.356,5.543-12.356,12.356v16.821c0,7.528,6.719,9.11,12.356,9.11h2.645c5.637,0,12.356-1.581,12.356-9.11V46.773  C60.861,46.756,60.037,46.805,59.215,46.773z"/><path d="M68.138,46.755v19.295c0,4.083-1.341,7.145-3.596,9.34C61.2,78.639,55.842,80,49.798,80h-3.583  c-6.045,0-11.402-1.361-14.745-4.61c-2.255-2.195-3.596-5.257-3.596-9.34V43.292c0-10.128,8.213-18.341,18.341-18.341h3.583  c8.88,0,16.292,6.318,17.98,14.705c-0.727,0.587-2.182,0.874-4.457,0.901c-2.042-5.704-7.499-9.794-13.897-9.794h-2.649  c-8.14,0-14.765,6.625-14.765,14.765v16.82c0,7.319,5.384,11.522,14.765,11.522h2.649c9.381,0,14.758-4.203,14.758-11.522V46.755  C65.196,46.721,67.647,46.757,68.138,46.755z"/><path d="M75.427,37.026c-0.052-0.999,0.259-23.521,0.007-27.796C75.097,3.502,72.19-0.634,58.6,0.08  c-6.91,0.363-11.028,4.859-11.681,13.861c-0.088-0.001-4.306,5.15-11.156,13.411c2.547-2.1,5.2-2.965,8.628-3.443  c0,0,5.179-5.822,5.558-6.816c0.938-2.458,0.431-12.784,8.747-13.203c6.142-0.31,12.741,0.355,12.827,5.594  c0.072,4.358,0.001,26.692,0,26.895c-1.427,0.205-2.187,0.813-2.258,2.201c-0.143,2.737-4.922,2.477-7.644,2.447  c-3.713-0.042-6.511-0.025-10.449,0.172c-2.575,0.129-3.182,4.888,1.135,4.877c5.444-0.015,9.725-0.098,14.97-0.281  c5.241-0.183,8.563-3.213,8.768-7.215C76.08,37.932,75.836,37.415,75.427,37.026z"/><path d="M4.699,54.216c-0.963-0.704-1.38-0.315-1.913,0.508l-2.278,2.772c-0.691,0.797-0.622,1.568-0.128,1.974l13.866,11.398  c0.944,0.685,1.35,0.178,1.911-0.507l2.278-2.771c0.565-0.686,0.98-1.263,0.13-1.976l-5.199-4.273l13.352-16.204v-0.943  c0-3.199,0.605-6.088,2.044-8.706C19.097,47.159,9.899,58.491,9.899,58.491L4.699,54.216z"/></svg>