<svg xmlns="http://www.w3.org/2000/svg" xmlns:xlink="http://www.w3.org/1999/xlink" version="1.1" x="0px" y="0px" viewBox="0 0 33 41.25" enable-background="new 0 0 33 33" xml:space="preserve"><g><path d="M17.0494,15.0851c-2.5996,0-4.7144,2.1108-4.7144,4.7056c0,2.5996,2.1147,4.7144,4.7144,4.7144   c2.5947,0,4.7056-2.1147,4.7056-4.7144C21.755,17.196,19.6442,15.0851,17.0494,15.0851z M14.6061,20.3586   c-0.1953-0.1953-0.1953-0.5117,0-0.707l2.2954-2.2954c0.1953-0.1953,0.5117-0.1953,0.707,0s0.1953,0.5117,0,0.707l-2.2954,2.2954   C15.1178,20.5539,14.8014,20.5539,14.6061,20.3586z M19.484,19.2805l-2.9536,2.9536c-0.1953,0.1953-0.5117,0.1953-0.707,0   c-0.1953-0.1953-0.1953-0.5117,0-0.707l2.9536-2.9536c0.1953-0.1953,0.5117-0.1953,0.707,0S19.6793,19.0851,19.484,19.2805z"/><g><path d="M30,7.59H3c-0.28,0-0.5,0.22-0.5,0.5V29.5c0,1.66,1.34,3,3,3h22c1.66,0,3-1.34,3-3V8.09C30.5,7.81,30.28,7.59,30,7.59z     M17.05,26.5c-3.71,0-6.71-3-6.71-6.71c0-3.7,3-6.71,6.71-6.71c3.71,0,6.71,3.01,6.71,6.71C23.76,23.5,20.76,26.5,17.05,26.5z"/><path d="M27.5,0.5h-22c-1.6569,0-3,1.3431-3,3v2.59c0,0.2761,0.2239,0.5,0.5,0.5h8c0.2761,0,0.5-0.2239,0.5-0.5V2.88    c0-0.27,0.23-0.5,0.5-0.5c0.28,0,0.5,0.23,0.5,0.5v3.21c0,0.2761,0.2239,0.5,0.5,0.5h17c0.2761,0,0.5-0.2239,0.5-0.5V3.5    C30.5,1.8431,29.1569,0.5,27.5,0.5z M6,5.045c-0.28,0-0.5-0.22-0.5-0.5c0-0.28,0.22-0.5,0.5-0.5s0.5,0.22,0.5,0.5    C6.5,4.825,6.28,5.045,6,5.045z M6,3.045c-0.28,0-0.5-0.22-0.5-0.5c0-0.28,0.22-0.5,0.5-0.5s0.5,0.22,0.5,0.5    C6.5,2.825,6.28,3.045,6,3.045z M8,5.045c-0.28,0-0.5-0.22-0.5-0.5c0-0.28,0.22-0.5,0.5-0.5s0.5,0.22,0.5,0.5    C8.5,4.825,8.28,5.045,8,5.045z M8,3.045c-0.28,0-0.5-0.22-0.5-0.5c0-0.28,0.22-0.5,0.5-0.5s0.5,0.22,0.5,0.5    C8.5,2.825,8.28,3.045,8,3.045z M24.54,4.13c0,0.28-0.22,0.5-0.5,0.5h-5.08c-0.28,0-0.5-0.22-0.5-0.5V2.96    c0-0.28,0.22-0.5,0.5-0.5h5.08c0.28,0,0.5,0.22,0.5,0.5V4.13z"/></g></g></svg>