<svg xmlns="http://www.w3.org/2000/svg" xmlns:xlink="http://www.w3.org/1999/xlink" version="1.1" x="0px" y="0px" viewBox="0 0 100 125" enable-background="new 0 0 100 100" xml:space="preserve"><polygon fill="none" points="3.368,67.753 8.152,67.753 8.352,55.791 "/><polygon fill="none" points="96.631,67.753 83.64,36.575 19.157,36.575 19.677,67.753 "/><path fill="none" d="M10.567,88.899c0.875,0.89,2.093,1.4,3.341,1.4h0.013c1.248,0,2.465-0.51,3.341-1.4  c0.12-0.122,0.215-0.265,0.32-0.399h-7.335C10.352,88.634,10.447,88.777,10.567,88.899z"/><path fill="none" d="M24.846,84.15H61.74V73.218H24.846V84.15z M52.175,75.951h6.832v4.099H57.64v1.366h-4.099v-1.366h-1.366V75.951  z M43.976,75.951h6.832v4.099h-1.366v1.366h-4.099v-1.366h-1.366V75.951z M35.778,75.951h6.832v4.099h-1.366v1.366h-4.099v-1.366  h-1.366V75.951z M27.579,75.951h6.832v4.099h-1.366v1.366h-4.099v-1.366h-1.366V75.951z"/><path fill="none" d="M63.106,84.15h12.298V73.218H63.106V84.15z M65.839,75.951h6.832v4.099h-1.366v1.366h-4.099v-1.366h-1.366  V75.951z"/><polygon points="37.144,81.417 41.243,81.417 41.243,80.051 42.61,80.051 42.61,75.951 35.778,75.951 35.778,80.051 37.144,80.051   "/><polygon points="28.945,81.417 33.045,81.417 33.045,80.051 34.411,80.051 34.411,75.951 27.579,75.951 27.579,80.051   28.945,80.051 "/><polygon points="53.541,81.417 57.64,81.417 57.64,80.051 59.007,80.051 59.007,75.951 52.175,75.951 52.175,80.051 53.541,80.051   "/><polygon points="45.343,81.417 49.442,81.417 49.442,80.051 50.808,80.051 50.808,75.951 43.976,75.951 43.976,80.051   45.343,80.051 "/><path d="M8.152,67.753H3.368l4.984-11.962l0.146-8.757L0.124,67.131C0.042,67.328,0,67.539,0,67.753v19.13  C0,87.775,0.724,88.5,1.617,88.5h7.007c-0.497-0.913-0.784-1.939-0.767-2.989L8.152,67.753z"/><polygon points="67.206,81.417 71.305,81.417 71.305,80.051 72.671,80.051 72.671,75.951 65.839,75.951 65.839,80.051   67.206,80.051 "/><path d="M17.399,13.096c-0.031-1.872-1.58-3.395-3.452-3.395c-1.931,0-3.485,1.529-3.516,3.407L9.223,85.535  c-0.021,1.248,0.469,2.474,1.344,3.364c0.875,0.89,2.093,1.4,3.341,1.4h0.013c1.248,0,2.465-0.51,3.341-1.4  c0.875-0.89,1.365-2.116,1.344-3.364L17.399,13.096z"/><path d="M80.87,75.951c-1.132,0-2.05,0.918-2.05,2.05c0,1.132,0.918,2.05,2.05,2.05c1.132,0,2.05-0.918,2.05-2.05  C82.92,76.869,82.002,75.951,80.87,75.951z M80.87,78.898c-0.495,0-0.897-0.402-0.897-0.897c0-0.495,0.401-0.897,0.897-0.897  c0.495,0,0.897,0.401,0.897,0.897C81.767,78.496,81.365,78.898,80.87,78.898z"/><path d="M99.875,66.88L86.21,34.085c-0.251-0.602-0.839-0.995-1.492-0.995H19.103l0.054,3.233H83.64l12.991,31.178H19.677  l0.296,17.758c0.017,1.05-0.27,2.076-0.767,2.989h79.177c0.893,0,1.617-0.725,1.617-1.617v-19.13  C100,67.288,99.957,67.077,99.875,66.88z M61.74,83.899H24.846V72.968H61.74V83.899z M75.404,83.899H63.106V72.968h12.298V83.899z   M84.286,82.783h-6.832v-8.199h6.832V82.783z M95.217,82.783c-1.132,0-2.05-0.918-2.05-2.05c0-1.132,0.918-2.05,2.05-2.05  s2.05,0.918,2.05,2.05C97.267,81.866,96.349,82.783,95.217,82.783z"/><circle cx="95.217" cy="80.734" r="0.897"/><polygon points="24.038,63.653 28.137,63.653 31.092,52.722 27.547,52.722 "/><polygon points="30.87,63.653 34.969,63.653 37.001,52.722 33.456,52.722 "/><polygon points="37.702,63.653 41.801,63.653 42.91,52.722 39.364,52.722 "/><polygon points="44.534,63.653 48.634,63.653 48.818,52.722 45.273,52.722 "/><polygon points="51.366,63.653 55.466,63.653 54.727,52.722 51.182,52.722 "/><polygon points="58.199,63.653 62.298,63.653 60.636,52.722 57.09,52.722 "/><polygon points="65.031,63.653 69.13,63.653 66.544,52.722 62.999,52.722 "/><polygon points="71.863,63.653 75.962,63.653 72.453,52.722 68.908,52.722 "/></svg>